<svg width="121" height="39" viewBox="0 0 121 39" fill="none" xmlns="http://www.w3.org/2000/svg">
<path d="M34.7366 27.3285C34.5465 26.8697 34.3683 26.3874 34.1782 25.9756L33.2991 24.0109L33.2635 23.9756C30.6499 18.3285 27.858 12.5874 24.8999 6.9403L24.7811 6.70501C24.4841 6.15206 24.1871 5.5403 23.8782 4.97559C23.4981 4.30501 23.1298 3.58736 22.5239 2.90501C21.9333 2.19104 21.19 1.61582 20.3477 1.22083C19.5054 0.825854 18.5851 0.620972 17.6531 0.620972C16.7211 0.620972 15.8008 0.825854 14.9584 1.22083C14.1161 1.61582 13.3729 2.19104 12.7823 2.90501C12.2239 3.58736 11.8081 4.30501 11.4279 4.97559C11.1309 5.58736 10.8339 6.18736 10.5251 6.7403L10.4063 6.97559C7.49565 12.6227 4.65631 18.3638 2.0427 24.0109L1.97142 24.0815C1.71006 24.6932 1.40118 25.3285 1.10418 26.0109C0.9141 26.4227 0.724019 26.8697 0.533938 27.3638C0.020759 28.6577 -0.143115 30.0617 0.0584658 31.4373C0.260047 32.813 0.820126 34.113 1.6835 35.209C2.54688 36.3051 3.68376 37.1594 4.98209 37.6879C6.28043 38.2163 7.6954 38.4007 9.08757 38.2227C10.4223 38.0487 11.7074 37.6084 12.8654 36.9285C14.4098 36.0697 15.8948 34.8227 17.558 33.0227C19.2213 34.8227 20.7419 36.0697 22.2507 36.9403C23.7016 37.7836 25.3447 38.2491 27.0264 38.2932C28.974 38.3013 30.8587 37.6112 32.3326 36.3506C33.8066 35.0899 34.7701 33.3437 35.0455 31.4344C35.3637 30.0624 35.256 28.6272 34.7366 27.3168V27.3285ZM17.6768 29.2815C15.6335 26.6932 14.3029 24.3168 13.8515 22.2815C13.6644 21.5273 13.6241 20.7447 13.7327 19.9756C13.8158 19.3756 14.0416 18.8462 14.3504 18.3991C15.0632 17.3756 16.3106 16.7403 17.6768 16.7403C18.3257 16.7207 18.9692 16.8609 19.5498 17.1484C20.1304 17.4358 20.6298 17.8616 21.0033 18.3874C21.3121 18.8579 21.5379 19.3756 21.6091 19.9756C21.7279 20.6579 21.6804 21.4462 21.4903 22.2815C21.0389 24.2815 19.7083 26.6815 17.6768 29.2815ZM32.812 31.0227C32.677 31.992 32.2879 32.9094 31.6835 33.6835C31.079 34.4575 30.2802 35.0612 29.3668 35.4344C28.4639 35.8109 27.466 35.9168 26.4918 35.8109C25.5414 35.6932 24.591 35.3874 23.6169 34.8227C21.9994 33.8326 20.545 32.6026 19.3044 31.1756C21.7992 28.1168 23.308 25.3285 23.8782 22.8462C24.1515 21.6697 24.1871 20.6109 24.0683 19.6344C23.92 18.7089 23.5714 17.826 23.0466 17.0462C22.4474 16.2006 21.6476 15.5138 20.7175 15.046C19.7873 14.5783 18.7554 14.3441 17.7125 14.3638C15.5147 14.3638 13.5545 15.3756 12.3665 17.0344C11.8317 17.8123 11.486 18.7022 11.3567 19.6344C11.2022 20.6227 11.2379 21.7168 11.5467 22.8462C12.117 25.3285 13.6614 28.1521 16.1206 31.1991C14.901 32.6534 13.4432 33.8943 11.8081 34.8697C10.8221 35.4344 9.88353 35.7285 8.93313 35.8462C7.45512 36.0337 5.96211 35.6359 4.77863 34.7393C3.59516 33.8426 2.81687 32.5197 2.61295 31.0579C2.49415 30.1168 2.57731 29.1756 2.95747 28.1168C3.07627 27.7403 3.25447 27.3638 3.44455 26.9168C3.70591 26.305 4.01479 25.6697 4.31179 25.0344L4.35931 24.9521C6.9254 19.3403 9.72909 13.6109 12.6397 7.99912L12.7585 7.76383C13.0555 7.19912 13.3525 6.59912 13.6614 6.03442C13.9703 5.43442 14.3029 4.85795 14.7306 4.38736C15.1008 3.94974 15.5634 3.5978 16.0857 3.35632C16.6081 3.11484 17.1776 2.9897 17.7541 2.9897C18.3305 2.9897 18.9 3.11484 19.4224 3.35632C19.9448 3.5978 20.4073 3.94974 20.7775 4.38736C21.1933 4.85795 21.5379 5.43442 21.8467 6.03442C22.1437 6.59912 22.4407 7.21089 22.7496 7.76383L22.8684 7.99912C25.7672 13.6109 28.5708 19.3403 31.1845 24.9521L31.2201 24.9874C31.529 25.5991 31.7903 26.2815 32.0873 26.8697C32.2774 27.3285 32.4675 27.6932 32.5863 28.0815C32.812 29.1403 32.9308 30.0815 32.812 31.0227ZM49.349 29.0227C48.4538 29.0356 47.5672 28.8488 46.7548 28.4761C45.9425 28.1034 45.2253 27.5544 44.6564 26.8697C43.3782 25.4108 42.6998 23.5298 42.7556 21.5991C42.7361 19.6264 43.4364 17.7131 44.7277 16.2109C45.325 15.5175 46.0686 14.9622 46.906 14.5842C47.7435 14.2061 48.6544 14.0144 49.5748 14.0227C50.4407 13.9992 51.2985 14.1942 52.0675 14.5893C52.8364 14.9845 53.4912 15.5668 53.9704 16.2815L54.0892 14.4344H57.5582V28.6462H54.0773L53.9585 26.5756C53.4645 27.3387 52.7817 27.9641 51.9749 28.3924C51.1682 28.8207 50.2643 29.0376 49.349 29.0227ZM50.2519 25.6344C50.941 25.6344 51.5469 25.4462 52.1171 25.105C52.6398 24.7285 53.0675 24.2344 53.4001 23.6344C53.6971 23.0344 53.8516 22.3168 53.8516 21.5168C53.8979 20.8219 53.7613 20.1271 53.4552 19.5002C53.1491 18.8733 52.6839 18.3358 52.1052 17.9403C51.5492 17.5972 50.9071 17.4153 50.2519 17.4153C49.5968 17.4153 48.9547 17.5972 48.3986 17.9403C47.8759 18.3168 47.4482 18.8109 47.1156 19.4109C46.8014 20.0726 46.6469 20.7975 46.6642 21.5285C46.6178 22.2234 46.7544 22.9182 47.0605 23.5451C47.3666 24.172 47.8318 24.7095 48.4105 25.105C48.9689 25.4462 49.5748 25.6344 50.2519 25.6344ZM63.4982 10.5991C63.4982 11.0109 63.4269 11.3874 63.2368 11.6932C63.0467 11.9874 62.7854 12.2579 62.4409 12.4462C62.0963 12.6344 61.7281 12.705 61.3479 12.705C60.9677 12.705 60.5876 12.6344 60.243 12.4462C59.9172 12.2665 59.6432 12.0074 59.4471 11.6932C59.2631 11.3581 59.1729 10.9804 59.1857 10.5991C59.1857 10.1756 59.2689 9.79912 59.4471 9.50501C59.6372 9.15207 59.9104 8.9403 60.243 8.75206C60.5876 8.56383 60.9559 8.48148 61.3479 8.48148C61.726 8.47285 62.1 8.56154 62.4332 8.73888C62.7663 8.91622 63.0473 9.17615 63.2487 9.49324C63.4216 9.83624 63.5072 10.2159 63.4982 10.5991ZM59.459 28.5991V14.4109H63.2368V28.6227H59.4471L59.459 28.5991ZM73.3349 18.1285V18.1756C73.1567 18.0932 72.9191 18.0579 72.7409 18.0227C72.5033 17.9756 72.3132 17.9756 72.0875 17.9756C71.0301 17.9756 70.2342 18.2815 69.7114 18.9168C69.1412 19.5638 68.8798 20.4697 68.8798 21.6344V28.6109H65.0901V14.3991H68.571L68.6898 16.5521C69.0699 15.7991 69.5214 15.2344 70.1629 14.8109C70.801 14.3994 71.5522 14.1939 72.3132 14.2227C72.5864 14.2227 72.8478 14.2462 73.0735 14.2932C73.1923 14.3285 73.2636 14.3285 73.3349 14.3638V18.1285ZM74.8555 28.5991V8.57559H78.6334V16.2227C79.168 15.5403 79.7738 15.0109 80.5342 14.5991C81.7378 14.0147 83.1053 13.8489 84.4158 14.1285C85.7262 14.4081 86.9034 15.1169 87.7572 16.1403C89.0383 17.6022 89.7169 19.488 89.6581 21.4227C89.6776 23.3953 88.9773 25.3087 87.686 26.8109C87.0886 27.5043 86.3451 28.0596 85.5076 28.4376C84.6702 28.8157 83.7592 29.0074 82.8389 28.9991C81.9729 29.0226 81.1151 28.8276 80.3462 28.4325C79.5773 28.0373 78.9224 27.455 78.4433 26.7403L78.3245 28.5874L74.8555 28.6227V28.5991ZM82.1617 25.6344C82.8389 25.6344 83.4448 25.4462 84.015 25.105C84.5378 24.7285 84.9654 24.2344 85.2981 23.6344C85.607 23.0344 85.7495 22.3168 85.7495 21.5168C85.7495 20.7285 85.607 20.0109 85.2981 19.4109C84.9861 18.8323 84.5478 18.33 84.015 17.9403C83.459 17.5972 82.8169 17.4153 82.1617 17.4153C81.5066 17.4153 80.8645 17.5972 80.3084 17.9403C79.7738 18.3168 79.358 18.8109 79.0135 19.4109C78.6994 20.0726 78.5448 20.7975 78.5621 21.5285C78.5158 22.2234 78.6524 22.9182 78.9585 23.5451C79.2646 24.172 79.7297 24.7095 80.3084 25.105C80.8668 25.4462 81.4727 25.6344 82.1617 25.6344ZM91.0836 28.6109V14.3991H94.5645L94.6833 16.2462C95.1207 15.5382 95.7412 14.9587 96.4806 14.5678C97.22 14.1769 98.0514 13.9887 98.8888 14.0227C99.8465 14.0063 100.788 14.2699 101.595 14.7804C102.402 15.291 103.039 16.0259 103.427 16.8932C103.843 17.7874 104.069 18.8932 104.069 20.1285V28.6462H100.279V20.6227C100.279 19.6344 100.053 18.8579 99.6016 18.2815C99.1502 17.7168 98.5324 17.4109 97.7484 17.4109C97.1781 17.4109 96.6792 17.5285 96.2396 17.7874C95.8238 18.0579 95.4793 18.3991 95.2179 18.8815C94.9537 19.3691 94.8226 19.9165 94.8378 20.4697V28.6109H91.0836ZM105.957 28.6109V8.56383H109.747V16.2109C110.261 15.5247 110.928 14.9665 111.697 14.5805C112.467 14.1946 113.316 13.9915 114.178 13.9874C115.074 13.9744 115.96 14.1612 116.773 14.5339C117.585 14.9066 118.302 15.4556 118.871 16.1403C120.143 17.6021 120.817 19.4821 120.76 21.4109C120.781 23.3838 120.08 25.2975 118.788 26.7991C118.191 27.4925 117.447 28.0478 116.61 28.4259C115.772 28.8039 114.861 28.9956 113.941 28.9874C113.075 29.0108 112.217 28.8158 111.448 28.4207C110.679 28.0255 110.024 27.4432 109.545 26.7285L109.438 28.5756L105.957 28.6109ZM113.299 25.6344C113.988 25.6344 114.594 25.4462 115.153 25.105C115.687 24.7285 116.103 24.2344 116.448 23.6344C116.745 23.0344 116.899 22.3168 116.899 21.5168C116.945 20.8219 116.809 20.1271 116.503 19.5002C116.197 18.8733 115.731 18.3358 115.153 17.9403C114.597 17.5972 113.955 17.4153 113.299 17.4153C112.644 17.4153 112.002 17.5972 111.446 17.9403C110.923 18.3168 110.496 18.8109 110.163 19.4109C109.831 20.0667 109.676 20.796 109.712 21.5285C109.665 22.2234 109.802 22.9182 110.108 23.5451C110.414 24.172 110.879 24.7095 111.458 25.105C112.016 25.4462 112.587 25.6344 113.299 25.6344Z" fill="#FF385C"/>
</svg>
