<svg width="122" height="39" viewBox="0 0 122 39" fill="none" xmlns="http://www.w3.org/2000/svg">
<g clip-path="url(#clip0_1089_1024)">
<path fill-rule="evenodd" clip-rule="evenodd" d="M75.1766 30.0882C68.1348 35.4392 57.9282 38.2941 49.1405 38.2941C36.8187 38.2941 25.726 33.5957 17.3339 25.7813C16.6745 25.1668 17.2653 24.3294 18.0565 24.8079C27.1132 30.2405 38.3115 33.5087 49.879 33.5087C57.6803 33.5087 66.2623 31.8446 74.1533 28.3915C75.3454 27.8695 76.3423 29.1964 75.1766 30.0882Z" fill="#FF9900"/>
<path fill-rule="evenodd" clip-rule="evenodd" d="M78.1023 26.635C77.2056 25.4496 72.1524 26.0749 69.8843 26.3523C69.1933 26.4393 69.0878 25.8193 69.7102 25.3734C73.7349 22.4532 80.3388 23.2961 81.1089 24.275C81.879 25.2592 80.9085 32.0839 77.1265 35.3412C76.5463 35.8415 75.9924 35.5751 76.2509 34.9116C77.1001 32.7256 79.0043 27.826 78.1023 26.635Z" fill="#FF9900"/>
<path fill-rule="evenodd" clip-rule="evenodd" d="M70.0444 4.75821V1.91959C70.0444 1.48999 70.3609 1.20178 70.7406 1.20178H83.0677C83.4633 1.20178 83.7798 1.49543 83.7798 1.91959V4.35036C83.7745 4.75821 83.4422 5.29113 82.8514 6.13402L76.4637 15.5363C78.8374 15.4764 81.3429 15.8408 83.495 17.0915C83.9802 17.3743 84.1121 17.7876 84.149 18.1954V21.2244C84.149 21.6377 83.7059 22.1216 83.2418 21.8715C79.4492 19.8214 74.4119 19.5984 70.2184 21.8932C69.7912 22.1325 69.3428 21.654 69.3428 21.2407V18.364C69.3428 17.9018 69.3481 17.1133 69.7965 16.4118L77.1969 5.47058H70.7565C70.3609 5.47058 70.0444 5.18238 70.0444 4.75821Z" fill="black"/>
<path fill-rule="evenodd" clip-rule="evenodd" d="M25.0751 22.4697H21.3247C20.9661 22.4426 20.6812 22.1652 20.6548 21.8117V1.96862C20.6548 1.57165 20.9766 1.25625 21.3775 1.25625H24.8746C25.2386 1.27255 25.5287 1.56077 25.5551 1.91968V4.51359H25.6236C26.5362 2.00669 28.2505 0.837524 30.5608 0.837524C32.9081 0.837524 34.3744 2.00669 35.4294 4.51359C36.3366 2.00669 38.399 0.837524 40.6092 0.837524C42.181 0.837524 43.9006 1.50639 44.9503 3.00727C46.1371 4.67673 45.8944 7.10206 45.8944 9.2283L45.8892 21.7519C45.8892 22.1489 45.5674 22.4697 45.1665 22.4697H41.4215C41.047 22.4426 40.7463 22.1326 40.7463 21.7519V11.2349C40.7463 10.3975 40.8202 8.30929 40.6408 7.51534C40.3613 6.18305 39.5226 5.80782 38.436 5.80782C37.5287 5.80782 36.5793 6.43319 36.1942 7.43378C35.8092 8.43436 35.8461 10.1092 35.8461 11.2349V21.7519C35.8461 22.1489 35.5243 22.4697 35.1234 22.4697H31.3784C30.9986 22.4426 30.7032 22.1326 30.7032 21.7519L30.6979 11.2349C30.6979 9.02166 31.0513 5.76432 28.3876 5.76432C25.6922 5.76432 25.7977 8.94009 25.7977 11.2349V21.7519C25.7977 22.1489 25.476 22.4697 25.0751 22.4697" fill="black"/>
<path fill-rule="evenodd" clip-rule="evenodd" d="M94.3909 0.837524C99.9557 0.837524 102.968 5.76432 102.968 12.0289C102.968 18.0813 99.6392 22.883 94.3909 22.883C88.9262 22.883 85.9513 17.9562 85.9513 11.8168C85.9513 5.63925 88.9632 0.837524 94.3909 0.837524ZM94.4225 4.88881C91.6586 4.88881 91.4845 8.77151 91.4845 11.1914C91.4845 13.6167 91.4476 18.7937 94.3909 18.7937C97.2973 18.7937 97.4344 14.6173 97.4344 12.0724C97.4344 10.3975 97.3658 8.3963 96.8753 6.80841C96.4533 5.42717 95.6146 4.88881 94.4225 4.88881Z" fill="black"/>
<path fill-rule="evenodd" clip-rule="evenodd" d="M110.185 22.4697H106.45C106.076 22.4426 105.775 22.1326 105.775 21.7519L105.77 1.90337C105.801 1.53902 106.113 1.25625 106.492 1.25625H109.968C110.295 1.27255 110.565 1.50096 110.638 1.81092V4.8453H110.707C111.757 2.13176 113.228 0.837524 115.818 0.837524C117.501 0.837524 119.141 1.46289 120.196 3.17585C121.177 4.76373 121.177 7.43377 121.177 9.35337V21.8444C121.135 22.1924 120.824 22.4697 120.455 22.4697H116.694C116.351 22.4426 116.066 22.1815 116.029 21.8444V11.0663C116.029 8.89659 116.272 5.72081 113.682 5.72081C112.769 5.72081 111.931 6.35162 111.514 7.3087C110.986 8.52137 110.918 9.7286 110.918 11.0663V21.7519C110.913 22.1489 110.586 22.4697 110.185 22.4697" fill="black"/>
<path fill-rule="evenodd" clip-rule="evenodd" d="M60.2165 12.9913C60.2165 14.4976 60.2534 15.7538 59.5149 17.0915C58.9189 18.1791 57.9694 18.848 56.9198 18.848C55.4798 18.848 54.6358 17.7169 54.6358 16.0474C54.6358 12.752 57.5 12.1538 60.2165 12.1538V12.9913ZM63.9985 22.4153C63.7505 22.6437 63.3919 22.66 63.1123 22.5077C61.8675 21.4419 61.6406 20.947 60.9602 19.9301C58.9031 22.0944 57.442 22.7415 54.7782 22.7415C51.6186 22.7415 49.1659 20.7349 49.1659 16.7163C49.1659 13.5786 50.8116 11.4415 53.1641 10.3974C55.2002 9.47291 58.0433 9.30978 60.2165 9.05419V8.5539C60.2165 7.63488 60.285 6.54729 59.7576 5.75335C59.3039 5.04097 58.4283 4.74732 57.6529 4.74732C56.2235 4.74732 54.9523 5.5032 54.6411 7.06933C54.5778 7.41736 54.3299 7.75996 53.987 7.77627L50.3527 7.37386C50.0468 7.30317 49.7039 7.04758 49.7936 6.5636C50.627 2.01747 54.6147 0.647095 58.1804 0.647095C60.0055 0.647095 62.3897 1.14739 63.8297 2.57213C65.6547 4.3286 65.4807 6.67236 65.4807 9.22277V15.248C65.4807 17.0589 66.2086 17.8528 66.8943 18.8317C67.1316 19.1797 67.1844 19.5984 66.8784 19.8594C66.1136 20.5174 64.7527 21.741 64.0037 22.4261L63.9984 22.4153" fill="black"/>
<path fill-rule="evenodd" clip-rule="evenodd" d="M11.0506 12.9915C11.0506 14.4978 11.0875 15.754 10.349 17.0917C9.75298 18.1793 8.8088 18.8482 7.75386 18.8482C6.31385 18.8482 5.47517 17.7171 5.47517 16.0477C5.47517 12.7522 8.33935 12.1541 11.0506 12.1541V12.9915ZM14.8326 22.4155C14.5846 22.6439 14.226 22.6602 13.9464 22.508C12.7016 21.4421 12.48 20.9473 11.7943 19.9304C9.73716 22.0947 8.28133 22.7418 5.61231 22.7418C2.45802 22.7418 0 20.7352 0 16.7165C0 13.5788 1.65099 11.4417 3.99825 10.3976C6.03429 9.47315 8.87738 9.31002 11.0506 9.05443V8.55414C11.0506 7.63512 11.1191 6.54753 10.5969 5.75359C10.138 5.04121 9.26243 4.74756 8.49232 4.74756C7.06287 4.74756 5.78638 5.50344 5.47517 7.06957C5.41188 7.41761 5.16396 7.7602 4.82638 7.77651L1.18682 7.3741C0.88088 7.30341 0.543297 7.04782 0.627692 6.56385C1.46638 2.01771 5.4488 0.647339 9.01452 0.647339C10.8396 0.647339 13.2238 1.14763 14.6638 2.57238C16.4888 4.32884 16.3147 6.6726 16.3147 9.22301V15.2483C16.3147 17.0591 17.0427 17.8531 17.7284 18.8319C17.971 19.1799 18.0238 19.5986 17.7178 19.8597C16.953 20.5177 15.5921 21.7412 14.8431 22.4264L14.8326 22.4155" fill="black"/>
</g>
<defs>
<clipPath id="clip0_1089_1024">
<rect width="121.176" height="37.6471" fill="white" transform="translate(0 0.647095)"/>
</clipPath>
</defs>
</svg>
