<svg width="69" height="31" viewBox="0 0 69 31" fill="none" xmlns="http://www.w3.org/2000/svg">
<rect width="30.5" height="31" rx="4" transform="matrix(-1 0 0 1 30.5 0)" fill="white" fill-opacity="0.5"/>
<path fill-rule="evenodd" clip-rule="evenodd" d="M18.4275 9.75105C18.7622 10.0858 18.7622 10.6285 18.4275 10.9632L13.8907 15.5L18.4275 20.0368C18.7622 20.3715 18.7622 20.9142 18.4275 21.2489C18.0928 21.5837 17.5501 21.5837 17.2153 21.2489L12.0725 16.1061C11.7377 15.7714 11.7377 15.2286 12.0725 14.8939L17.2153 9.75105C17.5501 9.41632 18.0928 9.41632 18.4275 9.75105Z" fill="#333333"/>
<rect x="38.5" width="30.5" height="31" rx="4" fill="#FFE600"/>
<path fill-rule="evenodd" clip-rule="evenodd" d="M50.5725 9.75105C50.2378 10.0858 50.2378 10.6285 50.5725 10.9632L55.1093 15.5L50.5725 20.0368C50.2378 20.3715 50.2378 20.9142 50.5725 21.2489C50.9072 21.5837 51.4499 21.5837 51.7847 21.2489L56.9275 16.1061C57.2623 15.7714 57.2623 15.2286 56.9275 14.8939L51.7847 9.75105C51.4499 9.41632 50.9072 9.41632 50.5725 9.75105Z" fill="#333333"/>
</svg>
