<svg width="143" height="42" viewBox="0 0 143 42" fill="none" xmlns="http://www.w3.org/2000/svg">
<path fill-rule="evenodd" clip-rule="evenodd" d="M90.0586 12.5998L87.7056 8.62337L83.5292 10.6116L81.1762 6.62337L76.9997 8.62337L74.6586 4.62337L70.4821 6.62337L68.1292 2.63513L63.9527 4.63513L61.6115 0.635132L57.4233 2.63513L48.5645 31.4822L59.3292 34.7763C59.7347 33.4761 60.5919 32.3638 61.7459 31.6405C62.8999 30.9171 64.2746 30.6304 65.6215 30.8322C66.9685 31.0339 68.1988 31.7108 69.0903 32.7406C69.9817 33.7703 70.4754 35.0849 70.4821 36.4469V36.5645C70.5056 37.0822 70.4468 37.5998 70.2939 38.1175L81.235 41.4704L90.0586 12.5998Z" fill="#D61920"/>
<path fill-rule="evenodd" clip-rule="evenodd" d="M57.8014 29.1058C57.5292 29.0608 57.2823 28.9197 57.1053 28.7082C56.9283 28.4967 56.833 28.2287 56.8367 27.9529V13.8352C56.8351 13.6803 56.8644 13.5266 56.923 13.3832C56.9816 13.2397 57.0682 13.1094 57.1777 12.9998C57.2873 12.8903 57.4176 12.8037 57.5611 12.7451C57.7045 12.6866 57.8582 12.6572 58.0131 12.6588H68.2131C68.8141 12.6572 69.4095 12.7741 69.9654 13.0026C70.5212 13.2312 71.0266 13.567 71.4526 13.9909C71.8787 14.4147 72.2171 14.9184 72.4485 15.473C72.6799 16.0277 72.7998 16.6225 72.8014 17.2235V27.9529C72.801 28.1262 72.7625 28.2972 72.6884 28.4538C72.6143 28.6105 72.5065 28.7488 72.3728 28.8589C72.239 28.9691 72.0826 29.0483 71.9147 29.091C71.7468 29.1337 71.5715 29.1387 71.4014 29.1058C71.1314 29.0583 70.8872 28.9162 70.7125 28.7049C70.5379 28.4936 70.4443 28.227 70.4484 27.9529V17.2352C70.4484 16.6424 70.2129 16.0738 69.7937 15.6546C69.3745 15.2354 68.806 14.9999 68.2131 14.9999H65.9896V27.9411C65.9905 28.0988 65.9597 28.255 65.8991 28.4005C65.8385 28.546 65.7492 28.6778 65.6367 28.7882C65.5027 28.921 65.3385 29.0193 65.1582 29.0746C64.9778 29.13 64.7868 29.1407 64.6014 29.1058C64.3292 29.0608 64.0823 28.9197 63.9053 28.7082C63.7283 28.4967 63.633 28.2287 63.6367 27.9529V14.9999H59.1896V27.9411C59.1907 28.1142 59.1536 28.2854 59.0809 28.4424C59.0083 28.5995 58.9019 28.7386 58.7693 28.8499C58.6367 28.9611 58.4812 29.0417 58.3139 29.086C58.1466 29.1302 57.9716 29.137 57.8014 29.1058ZM74.7661 35.2588C74.4919 35.2135 74.2433 35.0707 74.0661 34.8567C73.8888 34.6427 73.7948 34.3719 73.8014 34.0941C73.8027 33.7854 73.9252 33.4897 74.1425 33.2705C74.3597 33.0489 74.6557 32.922 74.9661 32.9176C75.9661 32.9176 76.8249 32.2823 77.1072 31.3294L78.319 27.2941L74.3543 14.0352C74.307 13.887 74.2896 13.7308 74.3031 13.5757C74.3166 13.4206 74.3608 13.2698 74.433 13.1319C74.5052 12.9941 74.6041 12.8719 74.7239 12.7725C74.8436 12.6731 74.9819 12.5984 75.1308 12.5529C75.4271 12.4707 75.7437 12.5055 76.0151 12.65C76.2866 12.7945 76.4922 13.0377 76.5896 13.3294L79.5308 23.2117L82.519 13.3294C82.6602 12.7882 83.2602 12.4235 83.872 12.5411L83.9543 12.5529C84.5896 12.7529 84.9425 13.4235 84.7543 14.047L80.6719 27.647L79.3778 31.9999C79.0874 32.9367 78.5116 33.7594 77.7308 34.3529C76.9366 34.9485 75.9706 35.2705 74.9778 35.2705C74.907 35.2733 74.8361 35.2693 74.7661 35.2588Z" fill="#FEFEFE"/>
<path fill-rule="evenodd" clip-rule="evenodd" d="M2.85904 26.5292H5.16492C5.7796 26.5292 6.3691 26.285 6.80375 25.8504C7.23839 25.4157 7.48257 24.8262 7.48257 24.2115V17.4233C7.48412 17.119 7.4257 16.8173 7.31066 16.5355C7.19562 16.2537 7.0262 15.9973 6.81208 15.781C6.59795 15.5647 6.34332 15.3927 6.06272 15.2748C5.78212 15.1569 5.48105 15.0954 5.17669 15.0939H2.85904V26.5057V26.5292ZM1.41198 28.9527C1.1295 28.905 0.873405 28.7578 0.69 28.5377C0.506595 28.3176 0.40798 28.0392 0.411982 27.7527V6.67037C0.409903 6.50907 0.44005 6.34898 0.500657 6.19948C0.561263 6.04999 0.651108 5.9141 0.764924 5.79978C0.902624 5.6568 1.07334 5.54983 1.26207 5.48829C1.4508 5.42675 1.65176 5.41252 1.84728 5.44684C2.43551 5.56449 2.85904 6.05861 2.85904 6.65861V12.6586H5.16492C5.79008 12.6571 6.4094 12.7789 6.98741 13.017C7.56542 13.2552 8.09077 13.605 8.53337 14.0465C8.97597 14.4881 9.32712 15.0125 9.56671 15.59C9.8063 16.1674 9.92963 16.7864 9.92963 17.4115V24.1998C9.92652 25.4594 9.42477 26.6665 8.53409 27.5572C7.64342 28.4479 6.43629 28.9496 5.17669 28.9527H1.63551C1.55689 28.9574 1.47799 28.9534 1.40022 28.941L1.41198 28.9527Z" fill="#333545"/>
<path fill-rule="evenodd" clip-rule="evenodd" d="M18.2237 14.9999C18.0916 14.9768 17.9578 14.965 17.8237 14.9646C17.5185 14.9614 17.2157 15.0192 16.9331 15.1346C16.6504 15.2499 16.3937 15.4205 16.1779 15.6364C15.962 15.8522 15.7914 16.109 15.6761 16.3916C15.5607 16.6742 15.5029 16.977 15.506 17.2822V24.3528C15.5045 24.6576 15.5634 24.9597 15.6793 25.2416C15.7952 25.5235 15.9659 25.7796 16.1814 25.9951C16.3969 26.2106 16.653 26.3813 16.9349 26.4972C17.2168 26.6131 17.5189 26.672 17.8237 26.6704C18.4384 26.6704 19.0279 26.4263 19.4625 25.9916C19.8972 25.557 20.1413 24.9675 20.1413 24.3528V17.294C20.1413 16.1528 19.3296 15.1999 18.2237 14.9999ZM16.9884 29.0587C15.8853 28.8646 14.8863 28.2873 14.1673 27.4285C13.4484 26.5696 13.0559 25.4846 13.059 24.3646V17.294C13.0569 16.6682 13.1797 16.0483 13.4201 15.4706C13.6604 14.8929 14.0136 14.3689 14.459 13.9293C14.9007 13.4876 15.4254 13.1376 16.0028 12.8994C16.5802 12.6612 17.1991 12.5394 17.8237 12.541C19.0843 12.541 20.2932 13.0418 21.1845 13.9331C22.0759 14.8245 22.5766 16.0334 22.5766 17.294V24.3646C22.5766 25.6352 22.0825 26.8352 21.1766 27.741C20.7367 28.1818 20.214 28.5313 19.6386 28.7695C19.0632 29.0078 18.4464 29.13 17.8237 29.1293C17.5437 29.1304 17.2642 29.1068 16.9884 29.0587ZM30.8708 15.0116C30.7387 14.9885 30.6048 14.9767 30.4708 14.9763C30.1655 14.9732 29.8627 15.031 29.5801 15.1463C29.2975 15.2617 29.0408 15.4323 28.8249 15.6481C28.6091 15.864 28.4385 16.1207 28.3231 16.4033C28.2078 16.686 28.15 16.9887 28.1531 17.294V24.3646C28.1515 24.6694 28.2104 24.9714 28.3263 25.2533C28.4423 25.5352 28.6129 25.7913 28.8285 26.0069C29.044 26.2224 29.3001 26.393 29.582 26.509C29.8639 26.6249 30.166 26.6838 30.4708 26.6822C30.7755 26.6838 31.0776 26.6249 31.3595 26.509C31.6414 26.393 31.8975 26.2224 32.1131 26.0069C32.3286 25.7913 32.4992 25.5352 32.6152 25.2533C32.7311 24.9714 32.79 24.6694 32.7884 24.3646V17.294C32.7884 16.1646 31.9766 15.2116 30.8708 15.0116ZM29.6355 29.0587C28.5346 28.8622 27.5382 28.2837 26.8217 27.4252C26.1051 26.5666 25.7142 25.4829 25.7178 24.3646V17.294C25.7197 16.6006 25.8728 15.916 26.1666 15.288C26.4603 14.6599 26.8876 14.1036 27.4186 13.6577C27.9496 13.2118 28.5715 12.8872 29.2409 12.7066C29.9103 12.5259 30.6111 12.4935 31.2943 12.6116C32.3975 12.8029 33.3978 13.3774 34.1188 14.234C34.8398 15.0906 35.2353 16.1743 35.2355 17.294V24.3646C35.2369 24.993 35.1128 25.6154 34.8703 26.1953C34.6279 26.7751 34.272 27.3006 33.8237 27.741C33.3837 28.1818 32.8611 28.5313 32.2857 28.7695C31.7103 29.0078 31.0935 29.13 30.4708 29.1293C30.1884 29.1293 29.906 29.1057 29.6355 29.0587ZM39.3649 29.1057C39.0824 29.058 38.8263 28.9108 38.6429 28.6907C38.4595 28.4706 38.3609 28.1922 38.3649 27.9057V6.67044C38.3649 6.34103 38.4825 6.02339 38.7178 5.79986C38.8566 5.66286 39.0264 5.56137 39.2128 5.50403C39.3991 5.44668 39.5966 5.43516 39.7884 5.47044C40.3766 5.56456 40.8119 6.07044 40.8119 6.67044V19.2352L46.4355 12.9293C46.7178 12.6234 47.1413 12.4822 47.5649 12.5528C47.7784 12.5885 47.9785 12.6808 48.1443 12.8201C48.3101 12.9593 48.4355 13.1405 48.5076 13.3446C48.5796 13.5488 48.5957 13.7686 48.554 13.981C48.5124 14.1935 48.4146 14.3909 48.2708 14.5528L44.0237 19.294L48.4119 27.3293C48.4909 27.4648 48.5421 27.6148 48.5623 27.7703C48.5825 27.9259 48.5714 28.0839 48.5296 28.2352C48.4841 28.391 48.4075 28.536 48.3044 28.6614C48.2012 28.7867 48.0737 28.8899 47.9296 28.9646C47.6805 29.1078 47.3886 29.1578 47.106 29.1057C46.9303 29.076 46.7632 29.0079 46.6168 28.9062C46.4704 28.8046 46.3482 28.6718 46.259 28.5175L42.306 21.2469L40.8002 22.9057V27.9057C40.8002 28.2302 40.6713 28.5414 40.4418 28.7709C40.2123 29.0004 39.9011 29.1293 39.5766 29.1293C39.4943 29.1293 39.4237 29.1293 39.3413 29.1057H39.3649ZM93.259 29.094C92.5974 28.9832 91.9689 28.726 91.4193 28.3414C90.8698 27.9567 90.4131 27.4541 90.0825 26.8704C89.9209 26.5845 89.8786 26.2462 89.9649 25.9293C90.059 25.6234 90.259 25.3646 90.5296 25.1999C90.7808 25.0626 91.0719 25.0169 91.3531 25.0704C91.7061 25.1293 92.0237 25.341 92.2002 25.6587C92.5178 26.1999 93.0237 26.5528 93.6472 26.6587C93.9687 26.7145 94.2987 26.697 94.6124 26.6073C94.9261 26.5177 95.2155 26.3583 95.459 26.141C95.9296 25.7057 96.1649 25.0822 96.106 24.4704C96.093 24.1569 96.0063 23.8508 95.853 23.5769C95.6997 23.303 95.4841 23.0691 95.2237 22.894L91.9296 20.5528C91.3929 20.1759 90.9459 19.6853 90.6206 19.1159C90.2952 18.5465 90.0994 17.9124 90.0472 17.2587C90.0047 16.5991 90.1128 15.9385 90.3636 15.327C90.6143 14.7155 91.001 14.1691 91.4943 13.7293C91.9756 13.2818 92.5505 12.9473 93.1773 12.7499C93.8041 12.5525 94.467 12.4972 95.1178 12.5881C96.5061 12.8234 97.6355 13.6234 98.2825 14.7528C98.4384 15.035 98.479 15.3667 98.3956 15.6782C98.3123 15.9897 98.1115 16.2567 97.8355 16.4234C97.5864 16.5666 97.2945 16.6166 97.0119 16.5646C96.8362 16.5349 96.6691 16.4667 96.5227 16.3651C96.3763 16.2634 96.2541 16.1306 96.1649 15.9763C96.0173 15.7267 95.8163 15.5129 95.5762 15.3502C95.3362 15.1874 95.0631 15.0799 94.7766 15.0352C94.4835 14.9821 94.182 14.9981 93.8961 15.0818C93.6102 15.1655 93.3478 15.3147 93.1296 15.5175C92.9165 15.7186 92.7503 15.964 92.6425 16.2364C92.5348 16.5088 92.4882 16.8016 92.5061 17.094C92.5296 17.6704 92.859 18.2352 93.3531 18.5646L96.6472 20.8587C97.2064 21.2502 97.6688 21.7643 97.9991 22.3616C98.3294 22.959 98.5189 23.624 98.5531 24.3057C98.6076 24.9843 98.5031 25.6662 98.2478 26.2973C97.9925 26.9284 97.5935 27.4912 97.0825 27.941C96.5855 28.4028 95.9919 28.748 95.3447 28.9515C94.6976 29.155 94.0132 29.2117 93.3413 29.1175L93.2472 29.094H93.259ZM102.706 29.1293C102.423 29.0796 102.167 28.9322 101.982 28.7129C101.797 28.4935 101.695 28.2162 101.694 27.9293V6.69397C101.693 6.53286 101.723 6.37305 101.784 6.2239C101.845 6.07474 101.935 5.93923 102.049 5.8253C102.163 5.71137 102.299 5.62131 102.448 5.56038C102.597 5.49945 102.757 5.46887 102.918 5.47044L103.153 5.48221C103.741 5.59986 104.141 6.08221 104.141 6.69397V12.694H106.459C107.084 12.6924 107.702 12.8143 108.28 13.0526C108.857 13.2909 109.382 13.641 109.823 14.0826C110.265 14.5243 110.615 15.0489 110.853 15.6262C111.092 16.2036 111.213 16.8223 111.212 17.4469V27.9175C111.213 28.0951 111.175 28.2708 111.1 28.4321C111.026 28.5934 110.917 28.7364 110.781 28.8509C110.645 28.9654 110.486 29.0486 110.314 29.0947C110.143 29.1408 109.963 29.1486 109.788 29.1175C109.2 29.0116 108.777 28.5057 108.777 27.9057V17.4352C108.777 17.1313 108.717 16.8305 108.6 16.55C108.483 16.2695 108.312 16.0147 108.097 15.8005C107.882 15.5862 107.626 15.4166 107.345 15.3014C107.064 15.1862 106.763 15.1277 106.459 15.1293H104.141V27.9175C104.143 28.0963 104.104 28.2732 104.029 28.4355C103.954 28.5978 103.844 28.7415 103.707 28.8562C103.57 28.9709 103.409 29.0538 103.236 29.099C103.063 29.1442 102.882 29.1505 102.706 29.1175V29.1293ZM119.506 15.0234C119.173 14.9629 118.83 14.9766 118.503 15.0635C118.175 15.1505 117.871 15.3085 117.611 15.5264C117.352 15.7443 117.144 16.0167 117.001 16.3243C116.859 16.6318 116.786 16.9669 116.788 17.3057V24.3763C116.787 24.6801 116.845 24.9812 116.961 25.2624C117.076 25.5435 117.245 25.7991 117.46 26.0144C117.674 26.2298 117.929 26.4007 118.209 26.5173C118.49 26.6339 118.79 26.694 119.094 26.694C119.706 26.694 120.294 26.4587 120.73 26.0234C120.947 25.8083 121.12 25.5517 121.237 25.2689C121.354 24.986 121.414 24.6825 121.412 24.3763V17.294C121.412 16.1646 120.612 15.1999 119.494 15.0116L119.506 15.0234ZM118.259 29.0469C117.159 28.8529 116.163 28.2768 115.446 27.4202C114.73 26.5636 114.338 25.4815 114.341 24.3646V17.294C114.341 16.5996 114.493 15.9137 114.786 15.2842C115.079 14.6547 115.506 14.0969 116.038 13.6497C116.569 13.2026 117.191 12.8769 117.862 12.6956C118.532 12.5142 119.234 12.4816 119.918 12.5999C121.023 12.7914 122.025 13.3677 122.746 14.2268C123.467 15.0858 123.862 16.1723 123.859 17.294V24.3646C123.86 24.9911 123.735 25.6115 123.493 26.1893C123.25 26.7671 122.895 27.2907 122.447 27.7293C121.908 28.2711 121.245 28.6741 120.515 28.9036C119.786 29.1331 119.012 29.1822 118.259 29.0469Z" fill="#333545"/>
<path fill-rule="evenodd" clip-rule="evenodd" d="M142.648 14.0468C142.688 13.8974 142.698 13.7415 142.678 13.588C142.658 13.4346 142.608 13.2867 142.53 13.1527C142.441 13.0099 142.325 12.8863 142.187 12.7894C142.05 12.6924 141.895 12.6239 141.73 12.588C141.427 12.5306 141.113 12.5912 140.853 12.7574C140.593 12.9236 140.406 13.1828 140.33 13.4821C140.33 13.5409 139.013 18.8468 137.977 22.8821L137.954 22.9645L137.93 22.8821L135.577 13.4939C135.532 13.2647 135.418 13.0549 135.249 12.8929C135.081 12.7309 134.867 12.6245 134.636 12.588C134.566 12.5742 134.496 12.5664 134.424 12.5645C133.883 12.5645 133.413 12.9409 133.26 13.4821C133.248 13.5409 131.93 18.8468 130.907 22.8821L130.883 22.9645L130.86 22.8821C129.86 18.8468 128.507 13.5409 128.507 13.4821C128.451 13.2569 128.332 13.0526 128.163 12.894C127.994 12.7353 127.782 12.629 127.554 12.588C127.358 12.5534 127.157 12.568 126.968 12.6305C126.779 12.693 126.609 12.8015 126.472 12.9461C126.336 13.0908 126.237 13.2671 126.186 13.4592C126.134 13.6514 126.131 13.8533 126.177 14.0468L129.719 28.1997C129.785 28.4591 129.936 28.6893 130.146 28.8551C130.356 29.0209 130.615 29.113 130.883 29.1174C131.46 29.1174 131.919 28.7409 132.036 28.1997L134.389 18.7997L134.424 18.7174L134.448 18.7997C135.483 22.8821 136.801 28.2115 136.801 28.2115C136.871 28.4658 137.021 28.691 137.228 28.854C137.436 29.017 137.69 29.1093 137.954 29.1174C138.225 29.1258 138.49 29.0385 138.703 28.8706C138.916 28.7028 139.063 28.4653 139.119 28.1997L142.648 14.0468Z" fill="#333545"/>
</svg>
