<svg width="808" height="48" viewBox="0 0 808 48" fill="none" xmlns="http://www.w3.org/2000/svg">
<rect x="286" y="3" width="4" height="42" rx="2" fill="#FFE600"/>
<path d="M334.785 23.957C334.785 26.2227 334.479 28.2539 333.867 30.0508C333.268 31.8346 332.422 33.3516 331.328 34.6016C330.247 35.8385 328.945 36.7891 327.422 37.4531C325.911 38.1172 324.245 38.4492 322.422 38.4492C320.586 38.4492 318.913 38.1237 317.402 37.4727C315.892 36.8216 314.596 35.8776 313.516 34.6406C312.435 33.4036 311.595 31.8932 310.996 30.1094C310.397 28.3255 310.098 26.3008 310.098 24.0352C310.098 21.7695 310.397 19.7448 310.996 17.9609C311.608 16.1641 312.461 14.6471 313.555 13.4102C314.648 12.1602 315.957 11.2096 317.48 10.5586C319.004 9.89453 320.677 9.5625 322.5 9.5625C324.323 9.5625 325.983 9.88802 327.48 10.5391C328.991 11.1901 330.286 12.1341 331.367 13.3711C332.448 14.6081 333.288 16.1185 333.887 17.9023C334.486 19.6732 334.785 21.6914 334.785 23.957ZM329.023 24.0352C329.023 22.6159 328.861 21.3529 328.535 20.2461C328.21 19.1393 327.754 18.2083 327.168 17.4531C326.582 16.6979 325.879 16.125 325.059 15.7344C324.251 15.3307 323.359 15.1289 322.383 15.1289C321.406 15.1289 320.514 15.3242 319.707 15.7148C318.9 16.0924 318.21 16.6589 317.637 17.4141C317.077 18.1562 316.641 19.0807 316.328 20.1875C316.016 21.2812 315.859 22.5378 315.859 23.957C315.859 25.3763 316.022 26.6393 316.348 27.7461C316.673 28.8529 317.129 29.7904 317.715 30.5586C318.301 31.3138 318.997 31.8932 319.805 32.2969C320.625 32.6875 321.523 32.8828 322.5 32.8828C323.477 32.8828 324.368 32.6875 325.176 32.2969C325.983 31.9062 326.667 31.3398 327.227 30.5977C327.799 29.8424 328.242 28.918 328.555 27.8242C328.867 26.7174 329.023 25.4544 329.023 24.0352ZM352.012 38V36.5938C351.53 37.1016 350.866 37.5378 350.02 37.9023C349.173 38.2669 348.197 38.4492 347.09 38.4492C344.564 38.4492 342.637 37.6354 341.309 36.0078C339.993 34.3802 339.336 31.9909 339.336 28.8398V17.0039H344.863V28.3516C344.863 30.0443 345.13 31.2812 345.664 32.0625C346.198 32.8438 347.116 33.2344 348.418 33.2344C349.733 33.2344 350.658 32.8372 351.191 32.043C351.738 31.2357 352.012 30.0508 352.012 28.4883V17.0039H357.539V38H352.012ZM375.176 23.4492C374.733 23.0456 374.245 22.7201 373.711 22.4727C373.177 22.2122 372.598 22.082 371.973 22.082C370.671 22.082 369.753 22.4596 369.219 23.2148C368.685 23.957 368.418 25.0964 368.418 26.6328V38H362.891V17.0039H368.418V18.3906C368.639 18.1562 368.9 17.9284 369.199 17.707C369.512 17.4857 369.85 17.2839 370.215 17.1016C370.592 16.9062 370.996 16.7695 371.426 16.6914C371.855 16.6003 372.292 16.5547 372.734 16.5547C373.633 16.5547 374.414 16.7109 375.078 17.0234C375.742 17.3229 376.257 17.6615 376.621 18.0391L375.176 23.4492ZM408.574 18.1562C408.262 17.5573 407.962 17.1081 407.676 16.8086C407.389 16.5091 407.038 16.2292 406.621 15.9688C406.204 15.6953 405.742 15.487 405.234 15.3438C404.727 15.2005 404.128 15.1289 403.438 15.1289C402.383 15.1289 401.445 15.3503 400.625 15.793C399.818 16.2227 399.128 16.8281 398.555 17.6094C397.995 18.3906 397.565 19.3281 397.266 20.4219C396.979 21.5026 396.836 22.694 396.836 23.9961C396.836 25.2591 396.986 26.431 397.285 27.5117C397.585 28.5924 398.014 29.5299 398.574 30.3242C399.147 31.1185 399.844 31.7435 400.664 32.1992C401.484 32.6549 402.422 32.8828 403.477 32.8828C404.622 32.8828 405.612 32.6354 406.445 32.1406C407.292 31.6458 408.132 30.7083 408.965 29.3281L413.691 32.1211C413.21 33.1107 412.637 33.9961 411.973 34.7773C411.309 35.5586 410.547 36.2227 409.688 36.7695C408.828 37.3164 407.865 37.7331 406.797 38.0195C405.742 38.306 404.583 38.4492 403.32 38.4492C402.044 38.4492 400.879 38.2995 399.824 38C398.783 37.6875 397.799 37.2383 396.875 36.6523C395.951 36.0664 395.13 35.3503 394.414 34.5039C393.698 33.6576 393.125 32.7786 392.695 31.8672C392.266 30.9557 391.888 29.8424 391.562 28.5273C391.25 27.1992 391.094 25.6888 391.094 23.9961C391.094 21.8737 391.4 19.9271 392.012 18.1562C392.624 16.3854 393.477 14.862 394.57 13.5859C395.664 12.3099 396.973 11.3203 398.496 10.6172C400.02 9.91406 401.693 9.5625 403.516 9.5625C405.872 9.5625 407.917 10.0768 409.648 11.1055C411.38 12.1211 412.754 13.6706 413.77 15.7539L408.574 18.1562ZM418.633 38V11.5938L424.16 8.83984V38H418.633ZM435.859 12.1211C435.859 12.5508 435.775 12.9609 435.605 13.3516C435.436 13.7292 435.208 14.0612 434.922 14.3477C434.635 14.6341 434.297 14.862 433.906 15.0312C433.529 15.2005 433.125 15.2852 432.695 15.2852C432.266 15.2852 431.855 15.2005 431.465 15.0312C431.087 14.862 430.755 14.6341 430.469 14.3477C430.182 14.0612 429.954 13.7292 429.785 13.3516C429.616 12.9609 429.531 12.5508 429.531 12.1211C429.531 11.6914 429.616 11.2878 429.785 10.9102C429.954 10.5195 430.182 10.181 430.469 9.89453C430.755 9.60807 431.087 9.38021 431.465 9.21094C431.855 9.04167 432.266 8.95703 432.695 8.95703C433.125 8.95703 433.529 9.04167 433.906 9.21094C434.297 9.38021 434.635 9.60807 434.922 9.89453C435.208 10.181 435.436 10.5195 435.605 10.9102C435.775 11.2878 435.859 11.6914 435.859 12.1211ZM429.922 38V17.0039H435.449V38H429.922ZM458.145 27.5117C458.145 27.9154 458.138 28.2604 458.125 28.5469C458.112 28.8333 458.092 29.0807 458.066 29.2891H445.508C445.56 30.0052 445.716 30.6172 445.977 31.125C446.25 31.6198 446.582 32.0234 446.973 32.3359C447.376 32.6484 447.826 32.8763 448.32 33.0195C448.815 33.1628 449.316 33.2344 449.824 33.2344C450.202 33.2344 450.553 33.2083 450.879 33.1562C451.204 33.0911 451.53 32.9935 451.855 32.8633C452.194 32.7201 452.487 32.5573 452.734 32.375C452.995 32.1927 453.223 31.9909 453.418 31.7695L457.344 35.0312C456.927 35.5781 456.432 36.0664 455.859 36.4961C455.286 36.9128 454.668 37.2708 454.004 37.5703C453.34 37.8568 452.65 38.0716 451.934 38.2148C451.23 38.3711 450.527 38.4492 449.824 38.4492C448.665 38.4492 447.624 38.306 446.699 38.0195C445.788 37.7461 444.987 37.375 444.297 36.9062C443.607 36.4375 442.995 35.8971 442.461 35.2852C441.927 34.6602 441.478 33.9701 441.113 33.2148C440.749 32.4466 440.462 31.5938 440.254 30.6562C440.046 29.7057 439.941 28.6576 439.941 27.5117C439.941 25.9102 440.176 24.4388 440.645 23.0977C441.126 21.7435 441.784 20.5846 442.617 19.6211C443.464 18.6576 444.453 17.9089 445.586 17.375C446.732 16.8281 447.969 16.5547 449.297 16.5547C450.703 16.5547 451.953 16.8477 453.047 17.4336C454.141 18.0065 455.065 18.7943 455.82 19.7969C456.576 20.7865 457.148 21.9453 457.539 23.2734C457.943 24.6016 458.145 26.0143 458.145 27.5117ZM452.773 25.1289C452.734 24.6602 452.63 24.1979 452.461 23.7422C452.305 23.2865 452.07 22.8828 451.758 22.5312C451.458 22.1797 451.081 21.8997 450.625 21.6914C450.182 21.4701 449.648 21.3594 449.023 21.3594C448.516 21.3594 448.06 21.457 447.656 21.6523C447.266 21.8477 446.921 22.1146 446.621 22.4531C446.335 22.7917 446.1 23.1888 445.918 23.6445C445.749 24.1003 445.638 24.5951 445.586 25.1289H452.773ZM475.215 38V26.6328C475.215 24.9792 474.948 23.7552 474.414 22.9609C473.893 22.1667 472.975 21.7695 471.66 21.7695C471.087 21.7695 470.579 21.8477 470.137 22.0039C469.694 22.1602 469.316 22.4206 469.004 22.7852C468.704 23.1497 468.47 23.638 468.301 24.25C468.145 24.849 468.066 25.6042 468.066 26.5156V38H462.539V17.0039H468.066V18.3906C468.301 18.1562 468.581 17.9284 468.906 17.707C469.245 17.4857 469.635 17.2839 470.078 17.1016C470.521 16.9062 470.983 16.7695 471.465 16.6914C471.96 16.6003 472.467 16.5547 472.988 16.5547C474.329 16.5547 475.482 16.7826 476.445 17.2383C477.422 17.681 478.229 18.319 478.867 19.1523C479.505 19.9727 479.974 20.9753 480.273 22.1602C480.586 23.3451 480.742 24.6797 480.742 26.1641V38H475.215ZM497.422 37.1602C496.966 37.5247 496.354 37.8307 495.586 38.0781C494.818 38.3255 494.004 38.4492 493.145 38.4492C492.298 38.4492 491.53 38.293 490.84 37.9805C490.15 37.668 489.557 37.2318 489.062 36.6719C488.581 36.099 488.203 35.4284 487.93 34.6602C487.669 33.8919 487.539 33.0456 487.539 32.1211V22.1992H484.023V17.0039H487.539V11.5938L493.066 8.83984V17.0039H498.105V22.1992H493.066V30.6367C493.066 31.1445 493.112 31.5612 493.203 31.8867C493.294 32.2122 493.424 32.4727 493.594 32.668C493.763 32.8503 493.971 32.9805 494.219 33.0586C494.479 33.1237 494.772 33.1562 495.098 33.1562C495.592 33.1562 496.074 33.0326 496.543 32.7852C497.025 32.5378 497.585 32.1276 498.223 31.5547L497.422 37.1602ZM519.082 18.6055L517.324 22.9609C516.283 22.401 515.221 21.9844 514.141 21.7109C513.073 21.4245 512.096 21.2812 511.211 21.2812C510.234 21.2812 509.518 21.3789 509.062 21.5742C508.607 21.7565 508.379 22.1146 508.379 22.6484C508.379 22.8698 508.431 23.0651 508.535 23.2344C508.639 23.4036 508.848 23.5729 509.16 23.7422C509.473 23.9115 509.909 24.1003 510.469 24.3086C511.042 24.5169 511.797 24.7708 512.734 25.0703C513.672 25.3828 514.564 25.7214 515.41 26.0859C516.257 26.4375 516.999 26.8672 517.637 27.375C518.275 27.8828 518.783 28.5013 519.16 29.2305C519.538 29.9466 519.727 30.832 519.727 31.8867C519.727 33.0977 519.499 34.1198 519.043 34.9531C518.6 35.7865 517.988 36.4635 517.207 36.9844C516.439 37.4922 515.534 37.8633 514.492 38.0977C513.464 38.332 512.357 38.4492 511.172 38.4492C509.57 38.4492 507.995 38.2344 506.445 37.8047C504.896 37.362 503.535 36.763 502.363 36.0078L504.219 31.8086C505.339 32.4336 506.491 32.9089 507.676 33.2344C508.874 33.5599 510.143 33.7227 511.484 33.7227C512.526 33.7227 513.255 33.599 513.672 33.3516C514.089 33.0911 514.297 32.681 514.297 32.1211C514.297 31.8867 514.245 31.6784 514.141 31.4961C514.036 31.3008 513.861 31.125 513.613 30.9688C513.379 30.7995 513.066 30.6367 512.676 30.4805C512.285 30.3242 511.797 30.1615 511.211 29.9922C509.948 29.6146 508.809 29.237 507.793 28.8594C506.777 28.4818 505.905 28.0326 505.176 27.5117C504.46 26.9779 503.906 26.3398 503.516 25.5977C503.125 24.8424 502.93 23.9115 502.93 22.8047C502.93 21.7109 503.132 20.7734 503.535 19.9922C503.952 19.1979 504.531 18.5469 505.273 18.0391C506.016 17.5312 506.901 17.1602 507.93 16.9258C508.958 16.6784 510.091 16.5547 511.328 16.5547C512.656 16.5547 513.997 16.7435 515.352 17.1211C516.719 17.4857 517.962 17.9805 519.082 18.6055Z" fill="white"/>
</svg>
