<svg width="118" height="37" viewBox="0 0 118 37" fill="none" xmlns="http://www.w3.org/2000/svg">
<path d="M87.6627 35.0613L97.474 24.1947L87.6627 13.3267H98.0146L102.874 18.6056L107.553 13.3267H117.544L107.779 24.1498L117.678 35.0613H107.284L102.468 29.7389L97.6985 35.0613H87.6627Z" fill="#FF6600"/>
<path d="M87.6636 8.45458H76.5515V13.3267H87.6636V20.6694H76.5515V27.409H87.6636V35.0613H68.3843V0.823486H87.6636V8.45458Z" fill="#FF6600"/>
<path d="M60.2512 0.823486V14.8353H60.1617C58.3612 12.7953 56.1116 12.0863 53.5013 12.0863C48.1545 12.0863 44.1269 15.6692 42.7131 20.4062C41.1008 15.1867 36.9428 11.9885 30.777 11.9885C25.7699 11.9885 21.8159 14.204 19.7525 17.8141V13.3272H9.4026V8.45559H20.6972V0.823486H0.176514V35.0618H9.4026V20.6694H18.5985C18.3243 21.7267 18.1781 22.8586 18.1781 24.0531C18.1781 31.1951 23.7131 36.2063 30.777 36.2063C36.7172 36.2063 40.6318 33.4574 42.7024 28.4457H34.796C33.7264 29.9512 32.9151 30.3984 30.777 30.3984C28.2977 30.3984 26.1601 28.2662 26.1601 25.7386H42.2594C42.9576 31.4114 47.4405 36.3037 53.5924 36.3037C56.2461 36.3037 58.6758 35.0169 60.1617 32.8443H60.2512V35.0608H68.3842V0.823486H60.2512ZM26.4169 20.7717C26.93 18.5971 28.641 17.1758 30.777 17.1758C33.1284 17.1758 34.7525 18.5532 35.1796 20.7717C35.3596 20.7717 26.4169 20.7717 26.4169 20.7717ZM55.3156 29.8484C52.3177 29.8484 50.4548 27.0949 50.4548 24.22C50.4548 21.1468 52.0752 18.1917 55.3156 18.1917C58.6758 18.1917 60.0144 21.1468 60.0144 24.22C60.0139 27.1342 58.5954 29.8484 55.3156 29.8484Z" fill="#652C8F"/>
</svg>
