<svg width="808" height="48" viewBox="0 0 808 48" fill="none" xmlns="http://www.w3.org/2000/svg">
<rect x="145" y="3" width="5" height="42" rx="2" fill="#FFE600"/>
<path d="M192.082 38H172.043V9.99219H191.496V15.4805H177.648V20.3242H188.898V25.7539H177.648V32.5117H192.082V38ZM209.992 38L205.949 31.3203L201.906 38H195.344L202.785 26.6328L196.457 17.0039H203.02L205.949 22.043L208.859 17.0039H215.422L209.113 26.6328L216.535 38H209.992ZM238.234 27.7656C238.234 29.3281 238.052 30.7669 237.688 32.082C237.323 33.3841 236.789 34.5104 236.086 35.4609C235.396 36.3984 234.543 37.1341 233.527 37.668C232.525 38.1888 231.372 38.4492 230.07 38.4492C229.146 38.4492 228.299 38.293 227.531 37.9805C226.763 37.6549 226.132 37.2643 225.637 36.8086V42.9609L220.109 45.7148V17.0039H225.637V18.3125C226.249 17.7526 226.926 17.3229 227.668 17.0234C228.41 16.7109 229.211 16.5547 230.07 16.5547C231.19 16.5547 232.245 16.7695 233.234 17.1992C234.224 17.6289 235.09 18.2995 235.832 19.2109C236.574 20.1224 237.16 21.2878 237.59 22.707C238.02 24.1133 238.234 25.7995 238.234 27.7656ZM232.629 27.8828C232.629 25.8906 232.323 24.3737 231.711 23.332C231.112 22.2904 230.22 21.7695 229.035 21.7695C228.293 21.7695 227.655 21.9062 227.121 22.1797C226.6 22.4531 226.105 22.9023 225.637 23.5273V31.4375C225.871 31.75 226.105 32.0104 226.34 32.2188C226.587 32.4271 226.867 32.6094 227.18 32.7656C227.492 32.9219 227.831 33.0391 228.195 33.1172C228.56 33.1953 228.944 33.2344 229.348 33.2344C230.415 33.2344 231.229 32.7852 231.789 31.8867C232.349 30.9883 232.629 29.6536 232.629 27.8828ZM242.805 38V11.5938L248.332 8.83984V38H242.805ZM271.828 27.5117C271.828 29.1263 271.587 30.6042 271.105 31.9453C270.637 33.2865 269.973 34.4388 269.113 35.4023C268.267 36.3659 267.258 37.1146 266.086 37.6484C264.927 38.1823 263.664 38.4492 262.297 38.4492C260.93 38.4492 259.667 38.1823 258.508 37.6484C257.349 37.1146 256.346 36.3659 255.5 35.4023C254.667 34.4388 254.009 33.2865 253.527 31.9453C253.059 30.6042 252.824 29.1263 252.824 27.5117C252.824 25.9102 253.059 24.4388 253.527 23.0977C254.009 21.7435 254.667 20.5846 255.5 19.6211C256.346 18.6576 257.349 17.9089 258.508 17.375C259.667 16.8281 260.93 16.5547 262.297 16.5547C263.664 16.5547 264.927 16.8281 266.086 17.375C267.258 17.9089 268.267 18.6576 269.113 19.6211C269.973 20.5846 270.637 21.7435 271.105 23.0977C271.587 24.4388 271.828 25.9102 271.828 27.5117ZM266.223 27.5117C266.223 26.7174 266.138 25.9818 265.969 25.3047C265.812 24.6146 265.572 24.0156 265.246 23.5078C264.921 23 264.51 22.6029 264.016 22.3164C263.534 22.0299 262.961 21.8867 262.297 21.8867C261.633 21.8867 261.06 22.0299 260.578 22.3164C260.096 22.6029 259.693 23 259.367 23.5078C259.055 24.0026 258.82 24.5951 258.664 25.2852C258.508 25.9622 258.43 26.7044 258.43 27.5117C258.43 28.319 258.508 29.0677 258.664 29.7578C258.82 30.4479 259.055 31.0404 259.367 31.5352C259.693 32.0299 260.096 32.4206 260.578 32.707C261.06 32.9805 261.633 33.1172 262.297 33.1172C262.961 33.1172 263.534 32.9674 264.016 32.668C264.51 32.3555 264.921 31.9388 265.246 31.418C265.572 30.8971 265.812 30.2982 265.969 29.6211C266.138 28.944 266.223 28.2409 266.223 27.5117ZM288.41 23.4492C287.967 23.0456 287.479 22.7201 286.945 22.4727C286.411 22.2122 285.832 22.082 285.207 22.082C283.905 22.082 282.987 22.4596 282.453 23.2148C281.919 23.957 281.652 25.0964 281.652 26.6328V38H276.125V17.0039H281.652V18.3906C281.874 18.1562 282.134 17.9284 282.434 17.707C282.746 17.4857 283.085 17.2839 283.449 17.1016C283.827 16.9062 284.23 16.7695 284.66 16.6914C285.09 16.6003 285.526 16.5547 285.969 16.5547C286.867 16.5547 287.648 16.7109 288.312 17.0234C288.977 17.3229 289.491 17.6615 289.855 18.0391L288.41 23.4492ZM309.777 27.5117C309.777 27.9154 309.771 28.2604 309.758 28.5469C309.745 28.8333 309.725 29.0807 309.699 29.2891H297.141C297.193 30.0052 297.349 30.6172 297.609 31.125C297.883 31.6198 298.215 32.0234 298.605 32.3359C299.009 32.6484 299.458 32.8763 299.953 33.0195C300.448 33.1628 300.949 33.2344 301.457 33.2344C301.835 33.2344 302.186 33.2083 302.512 33.1562C302.837 33.0911 303.163 32.9935 303.488 32.8633C303.827 32.7201 304.12 32.5573 304.367 32.375C304.628 32.1927 304.855 31.9909 305.051 31.7695L308.977 35.0312C308.56 35.5781 308.065 36.0664 307.492 36.4961C306.919 36.9128 306.301 37.2708 305.637 37.5703C304.973 37.8568 304.283 38.0716 303.566 38.2148C302.863 38.3711 302.16 38.4492 301.457 38.4492C300.298 38.4492 299.257 38.306 298.332 38.0195C297.421 37.7461 296.62 37.375 295.93 36.9062C295.24 36.4375 294.628 35.8971 294.094 35.2852C293.56 34.6602 293.111 33.9701 292.746 33.2148C292.382 32.4466 292.095 31.5938 291.887 30.6562C291.678 29.7057 291.574 28.6576 291.574 27.5117C291.574 25.9102 291.809 24.4388 292.277 23.0977C292.759 21.7435 293.417 20.5846 294.25 19.6211C295.096 18.6576 296.086 17.9089 297.219 17.375C298.365 16.8281 299.602 16.5547 300.93 16.5547C302.336 16.5547 303.586 16.8477 304.68 17.4336C305.773 18.0065 306.698 18.7943 307.453 19.7969C308.208 20.7865 308.781 21.9453 309.172 23.2734C309.576 24.6016 309.777 26.0143 309.777 27.5117ZM304.406 25.1289C304.367 24.6602 304.263 24.1979 304.094 23.7422C303.938 23.2865 303.703 22.8828 303.391 22.5312C303.091 22.1797 302.714 21.8997 302.258 21.6914C301.815 21.4701 301.281 21.3594 300.656 21.3594C300.148 21.3594 299.693 21.457 299.289 21.6523C298.898 21.8477 298.553 22.1146 298.254 22.4531C297.967 22.7917 297.733 23.1888 297.551 23.6445C297.382 24.1003 297.271 24.5951 297.219 25.1289H304.406ZM342.941 38L337.941 27.9219H332.297V38H326.691V9.99219H339.738C341.053 9.99219 342.297 10.1745 343.469 10.5391C344.641 10.9036 345.663 11.457 346.535 12.1992C347.421 12.9414 348.117 13.8724 348.625 14.9922C349.133 16.099 349.387 17.3945 349.387 18.8789C349.387 19.9987 349.27 20.9818 349.035 21.8281C348.801 22.6745 348.449 23.4362 347.98 24.1133C347.525 24.7904 346.978 25.3698 346.34 25.8516C345.702 26.3333 344.927 26.7565 344.016 27.1211L349.387 38H342.941ZM343.625 18.9961C343.625 18.319 343.527 17.7591 343.332 17.3164C343.137 16.8607 342.85 16.4961 342.473 16.2227C342.108 15.9492 341.685 15.7539 341.203 15.6367C340.734 15.5065 340.207 15.4414 339.621 15.4414H332.297V22.6484H339.621C340.324 22.6484 340.917 22.5703 341.398 22.4141C341.893 22.2448 342.303 22.0104 342.629 21.7109C342.967 21.3984 343.215 21.0208 343.371 20.5781C343.54 20.1354 343.625 19.6081 343.625 18.9961ZM370.402 27.5117C370.402 27.9154 370.396 28.2604 370.383 28.5469C370.37 28.8333 370.35 29.0807 370.324 29.2891H357.766C357.818 30.0052 357.974 30.6172 358.234 31.125C358.508 31.6198 358.84 32.0234 359.23 32.3359C359.634 32.6484 360.083 32.8763 360.578 33.0195C361.073 33.1628 361.574 33.2344 362.082 33.2344C362.46 33.2344 362.811 33.2083 363.137 33.1562C363.462 33.0911 363.788 32.9935 364.113 32.8633C364.452 32.7201 364.745 32.5573 364.992 32.375C365.253 32.1927 365.48 31.9909 365.676 31.7695L369.602 35.0312C369.185 35.5781 368.69 36.0664 368.117 36.4961C367.544 36.9128 366.926 37.2708 366.262 37.5703C365.598 37.8568 364.908 38.0716 364.191 38.2148C363.488 38.3711 362.785 38.4492 362.082 38.4492C360.923 38.4492 359.882 38.306 358.957 38.0195C358.046 37.7461 357.245 37.375 356.555 36.9062C355.865 36.4375 355.253 35.8971 354.719 35.2852C354.185 34.6602 353.736 33.9701 353.371 33.2148C353.007 32.4466 352.72 31.5938 352.512 30.6562C352.303 29.7057 352.199 28.6576 352.199 27.5117C352.199 25.9102 352.434 24.4388 352.902 23.0977C353.384 21.7435 354.042 20.5846 354.875 19.6211C355.721 18.6576 356.711 17.9089 357.844 17.375C358.99 16.8281 360.227 16.5547 361.555 16.5547C362.961 16.5547 364.211 16.8477 365.305 17.4336C366.398 18.0065 367.323 18.7943 368.078 19.7969C368.833 20.7865 369.406 21.9453 369.797 23.2734C370.201 24.6016 370.402 26.0143 370.402 27.5117ZM365.031 25.1289C364.992 24.6602 364.888 24.1979 364.719 23.7422C364.562 23.2865 364.328 22.8828 364.016 22.5312C363.716 22.1797 363.339 21.8997 362.883 21.6914C362.44 21.4701 361.906 21.3594 361.281 21.3594C360.773 21.3594 360.318 21.457 359.914 21.6523C359.523 21.8477 359.178 22.1146 358.879 22.4531C358.592 22.7917 358.358 23.1888 358.176 23.6445C358.007 24.1003 357.896 24.5951 357.844 25.1289H365.031ZM392.16 33.7617C391.652 34.4388 391.112 35.0638 390.539 35.6367C389.979 36.2096 389.354 36.7044 388.664 37.1211C387.974 37.5378 387.212 37.8633 386.379 38.0977C385.546 38.332 384.608 38.4492 383.566 38.4492C382.199 38.4492 380.917 38.1823 379.719 37.6484C378.521 37.1146 377.473 36.3659 376.574 35.4023C375.689 34.4388 374.992 33.2865 374.484 31.9453C373.977 30.6042 373.723 29.1263 373.723 27.5117C373.723 25.9102 373.97 24.4388 374.465 23.0977C374.973 21.7435 375.676 20.5846 376.574 19.6211C377.473 18.6576 378.534 17.9089 379.758 17.375C380.995 16.8281 382.342 16.5547 383.801 16.5547C385.572 16.5547 387.147 16.9453 388.527 17.7266C389.908 18.4948 391.105 19.6536 392.121 21.2031L388.488 24.875C388.176 24.4323 387.85 24.0286 387.512 23.6641C387.186 23.2995 386.835 22.987 386.457 22.7266C386.079 22.4661 385.663 22.2643 385.207 22.1211C384.751 21.9648 384.243 21.8867 383.684 21.8867C383.02 21.8867 382.421 22.0234 381.887 22.2969C381.353 22.5573 380.897 22.9349 380.52 23.4297C380.142 23.9115 379.849 24.4974 379.641 25.1875C379.432 25.8776 379.328 26.6523 379.328 27.5117C379.328 28.3581 379.432 29.1263 379.641 29.8164C379.849 30.4935 380.142 31.0794 380.52 31.5742C380.897 32.069 381.353 32.4531 381.887 32.7266C382.421 32.987 383.02 33.1172 383.684 33.1172C384.217 33.1172 384.706 33.0586 385.148 32.9414C385.604 32.8242 386.027 32.6549 386.418 32.4336C386.822 32.1992 387.199 31.9193 387.551 31.5938C387.915 31.2552 388.28 30.8711 388.645 30.4414L392.16 33.7617ZM412.902 27.5117C412.902 27.9154 412.896 28.2604 412.883 28.5469C412.87 28.8333 412.85 29.0807 412.824 29.2891H400.266C400.318 30.0052 400.474 30.6172 400.734 31.125C401.008 31.6198 401.34 32.0234 401.73 32.3359C402.134 32.6484 402.583 32.8763 403.078 33.0195C403.573 33.1628 404.074 33.2344 404.582 33.2344C404.96 33.2344 405.311 33.2083 405.637 33.1562C405.962 33.0911 406.288 32.9935 406.613 32.8633C406.952 32.7201 407.245 32.5573 407.492 32.375C407.753 32.1927 407.98 31.9909 408.176 31.7695L412.102 35.0312C411.685 35.5781 411.19 36.0664 410.617 36.4961C410.044 36.9128 409.426 37.2708 408.762 37.5703C408.098 37.8568 407.408 38.0716 406.691 38.2148C405.988 38.3711 405.285 38.4492 404.582 38.4492C403.423 38.4492 402.382 38.306 401.457 38.0195C400.546 37.7461 399.745 37.375 399.055 36.9062C398.365 36.4375 397.753 35.8971 397.219 35.2852C396.685 34.6602 396.236 33.9701 395.871 33.2148C395.507 32.4466 395.22 31.5938 395.012 30.6562C394.803 29.7057 394.699 28.6576 394.699 27.5117C394.699 25.9102 394.934 24.4388 395.402 23.0977C395.884 21.7435 396.542 20.5846 397.375 19.6211C398.221 18.6576 399.211 17.9089 400.344 17.375C401.49 16.8281 402.727 16.5547 404.055 16.5547C405.461 16.5547 406.711 16.8477 407.805 17.4336C408.898 18.0065 409.823 18.7943 410.578 19.7969C411.333 20.7865 411.906 21.9453 412.297 23.2734C412.701 24.6016 412.902 26.0143 412.902 27.5117ZM407.531 25.1289C407.492 24.6602 407.388 24.1979 407.219 23.7422C407.062 23.2865 406.828 22.8828 406.516 22.5312C406.216 22.1797 405.839 21.8997 405.383 21.6914C404.94 21.4701 404.406 21.3594 403.781 21.3594C403.273 21.3594 402.818 21.457 402.414 21.6523C402.023 21.8477 401.678 22.1146 401.379 22.4531C401.092 22.7917 400.858 23.1888 400.676 23.6445C400.507 24.1003 400.396 24.5951 400.344 25.1289H407.531ZM429.973 38V26.6328C429.973 24.9792 429.706 23.7552 429.172 22.9609C428.651 22.1667 427.733 21.7695 426.418 21.7695C425.845 21.7695 425.337 21.8477 424.895 22.0039C424.452 22.1602 424.074 22.4206 423.762 22.7852C423.462 23.1497 423.228 23.638 423.059 24.25C422.902 24.849 422.824 25.6042 422.824 26.5156V38H417.297V17.0039H422.824V18.3906C423.059 18.1562 423.339 17.9284 423.664 17.707C424.003 17.4857 424.393 17.2839 424.836 17.1016C425.279 16.9062 425.741 16.7695 426.223 16.6914C426.717 16.6003 427.225 16.5547 427.746 16.5547C429.087 16.5547 430.24 16.7826 431.203 17.2383C432.18 17.681 432.987 18.319 433.625 19.1523C434.263 19.9727 434.732 20.9753 435.031 22.1602C435.344 23.3451 435.5 24.6797 435.5 26.1641V38H429.973ZM452.18 37.1602C451.724 37.5247 451.112 37.8307 450.344 38.0781C449.576 38.3255 448.762 38.4492 447.902 38.4492C447.056 38.4492 446.288 38.293 445.598 37.9805C444.908 37.668 444.315 37.2318 443.82 36.6719C443.339 36.099 442.961 35.4284 442.688 34.6602C442.427 33.8919 442.297 33.0456 442.297 32.1211V22.1992H438.781V17.0039H442.297V11.5938L447.824 8.83984V17.0039H452.863V22.1992H447.824V30.6367C447.824 31.1445 447.87 31.5612 447.961 31.8867C448.052 32.2122 448.182 32.4727 448.352 32.668C448.521 32.8503 448.729 32.9805 448.977 33.0586C449.237 33.1237 449.53 33.1562 449.855 33.1562C450.35 33.1562 450.832 33.0326 451.301 32.7852C451.783 32.5378 452.342 32.1276 452.98 31.5547L452.18 37.1602ZM493.156 25.6367C493.156 27.668 492.896 29.4779 492.375 31.0664C491.867 32.6549 491.125 33.9961 490.148 35.0898C489.172 36.1836 487.98 37.0169 486.574 37.5898C485.168 38.1628 483.579 38.4492 481.809 38.4492C480.116 38.4492 478.573 38.1693 477.18 37.6094C475.799 37.0495 474.608 36.2292 473.605 35.1484C472.616 34.0677 471.848 32.7396 471.301 31.1641C470.754 29.5755 470.48 27.7591 470.48 25.7148V9.99219H476.086V25.6367C476.086 27.9023 476.6 29.6927 477.629 31.0078C478.658 32.3099 480.051 32.9609 481.809 32.9609C483.579 32.9609 484.979 32.3099 486.008 31.0078C487.049 29.7057 487.57 27.9414 487.57 25.7148V9.99219H493.156V25.6367ZM514.816 18.6055L513.059 22.9609C512.017 22.401 510.956 21.9844 509.875 21.7109C508.807 21.4245 507.831 21.2812 506.945 21.2812C505.969 21.2812 505.253 21.3789 504.797 21.5742C504.341 21.7565 504.113 22.1146 504.113 22.6484C504.113 22.8698 504.165 23.0651 504.27 23.2344C504.374 23.4036 504.582 23.5729 504.895 23.7422C505.207 23.9115 505.643 24.1003 506.203 24.3086C506.776 24.5169 507.531 24.7708 508.469 25.0703C509.406 25.3828 510.298 25.7214 511.145 26.0859C511.991 26.4375 512.733 26.8672 513.371 27.375C514.009 27.8828 514.517 28.5013 514.895 29.2305C515.272 29.9466 515.461 30.832 515.461 31.8867C515.461 33.0977 515.233 34.1198 514.777 34.9531C514.335 35.7865 513.723 36.4635 512.941 36.9844C512.173 37.4922 511.268 37.8633 510.227 38.0977C509.198 38.332 508.091 38.4492 506.906 38.4492C505.305 38.4492 503.729 38.2344 502.18 37.8047C500.63 37.362 499.27 36.763 498.098 36.0078L499.953 31.8086C501.073 32.4336 502.225 32.9089 503.41 33.2344C504.608 33.5599 505.878 33.7227 507.219 33.7227C508.26 33.7227 508.99 33.599 509.406 33.3516C509.823 33.0911 510.031 32.681 510.031 32.1211C510.031 31.8867 509.979 31.6784 509.875 31.4961C509.771 31.3008 509.595 31.125 509.348 30.9688C509.113 30.7995 508.801 30.6367 508.41 30.4805C508.02 30.3242 507.531 30.1615 506.945 29.9922C505.682 29.6146 504.543 29.237 503.527 28.8594C502.512 28.4818 501.639 28.0326 500.91 27.5117C500.194 26.9779 499.641 26.3398 499.25 25.5977C498.859 24.8424 498.664 23.9115 498.664 22.8047C498.664 21.7109 498.866 20.7734 499.27 19.9922C499.686 19.1979 500.266 18.5469 501.008 18.0391C501.75 17.5312 502.635 17.1602 503.664 16.9258C504.693 16.6784 505.826 16.5547 507.062 16.5547C508.391 16.5547 509.732 16.7435 511.086 17.1211C512.453 17.4857 513.697 17.9805 514.816 18.6055ZM537.082 27.5117C537.082 27.9154 537.076 28.2604 537.062 28.5469C537.049 28.8333 537.03 29.0807 537.004 29.2891H524.445C524.497 30.0052 524.654 30.6172 524.914 31.125C525.188 31.6198 525.52 32.0234 525.91 32.3359C526.314 32.6484 526.763 32.8763 527.258 33.0195C527.753 33.1628 528.254 33.2344 528.762 33.2344C529.139 33.2344 529.491 33.2083 529.816 33.1562C530.142 33.0911 530.467 32.9935 530.793 32.8633C531.132 32.7201 531.424 32.5573 531.672 32.375C531.932 32.1927 532.16 31.9909 532.355 31.7695L536.281 35.0312C535.865 35.5781 535.37 36.0664 534.797 36.4961C534.224 36.9128 533.605 37.2708 532.941 37.5703C532.277 37.8568 531.587 38.0716 530.871 38.2148C530.168 38.3711 529.465 38.4492 528.762 38.4492C527.603 38.4492 526.561 38.306 525.637 38.0195C524.725 37.7461 523.924 37.375 523.234 36.9062C522.544 36.4375 521.932 35.8971 521.398 35.2852C520.865 34.6602 520.415 33.9701 520.051 33.2148C519.686 32.4466 519.4 31.5938 519.191 30.6562C518.983 29.7057 518.879 28.6576 518.879 27.5117C518.879 25.9102 519.113 24.4388 519.582 23.0977C520.064 21.7435 520.721 20.5846 521.555 19.6211C522.401 18.6576 523.391 17.9089 524.523 17.375C525.669 16.8281 526.906 16.5547 528.234 16.5547C529.641 16.5547 530.891 16.8477 531.984 17.4336C533.078 18.0065 534.003 18.7943 534.758 19.7969C535.513 20.7865 536.086 21.9453 536.477 23.2734C536.88 24.6016 537.082 26.0143 537.082 27.5117ZM531.711 25.1289C531.672 24.6602 531.568 24.1979 531.398 23.7422C531.242 23.2865 531.008 22.8828 530.695 22.5312C530.396 22.1797 530.018 21.8997 529.562 21.6914C529.12 21.4701 528.586 21.3594 527.961 21.3594C527.453 21.3594 526.997 21.457 526.594 21.6523C526.203 21.8477 525.858 22.1146 525.559 22.4531C525.272 22.7917 525.038 23.1888 524.855 23.6445C524.686 24.1003 524.576 24.5951 524.523 25.1289H531.711ZM570.012 18.1562C569.699 17.5573 569.4 17.1081 569.113 16.8086C568.827 16.5091 568.475 16.2292 568.059 15.9688C567.642 15.6953 567.18 15.487 566.672 15.3438C566.164 15.2005 565.565 15.1289 564.875 15.1289C563.82 15.1289 562.883 15.3503 562.062 15.793C561.255 16.2227 560.565 16.8281 559.992 17.6094C559.432 18.3906 559.003 19.3281 558.703 20.4219C558.417 21.5026 558.273 22.694 558.273 23.9961C558.273 25.2591 558.423 26.431 558.723 27.5117C559.022 28.5924 559.452 29.5299 560.012 30.3242C560.585 31.1185 561.281 31.7435 562.102 32.1992C562.922 32.6549 563.859 32.8828 564.914 32.8828C566.06 32.8828 567.049 32.6354 567.883 32.1406C568.729 31.6458 569.569 30.7083 570.402 29.3281L575.129 32.1211C574.647 33.1107 574.074 33.9961 573.41 34.7773C572.746 35.5586 571.984 36.2227 571.125 36.7695C570.266 37.3164 569.302 37.7331 568.234 38.0195C567.18 38.306 566.021 38.4492 564.758 38.4492C563.482 38.4492 562.316 38.2995 561.262 38C560.22 37.6875 559.237 37.2383 558.312 36.6523C557.388 36.0664 556.568 35.3503 555.852 34.5039C555.135 33.6576 554.562 32.7786 554.133 31.8672C553.703 30.9557 553.326 29.8424 553 28.5273C552.688 27.1992 552.531 25.6888 552.531 23.9961C552.531 21.8737 552.837 19.9271 553.449 18.1562C554.061 16.3854 554.914 14.862 556.008 13.5859C557.102 12.3099 558.41 11.3203 559.934 10.6172C561.457 9.91406 563.13 9.5625 564.953 9.5625C567.31 9.5625 569.354 10.0768 571.086 11.1055C572.818 12.1211 574.191 13.6706 575.207 15.7539L570.012 18.1562ZM590.812 38V36.5938C590.565 36.8542 590.285 37.0951 589.973 37.3164C589.66 37.5247 589.283 37.7266 588.84 37.9219C588.397 38.1042 587.948 38.2344 587.492 38.3125C587.036 38.4036 586.568 38.4492 586.086 38.4492C585.109 38.4492 584.152 38.2995 583.215 38C582.277 37.6875 581.438 37.2253 580.695 36.6133C579.966 36.0013 579.374 35.2266 578.918 34.2891C578.475 33.3516 578.254 32.2448 578.254 30.9688C578.254 29.8099 578.475 28.7943 578.918 27.9219C579.361 27.0495 579.966 26.3268 580.734 25.7539C581.503 25.168 582.401 24.7318 583.43 24.4453C584.471 24.1458 585.585 23.9961 586.77 23.9961C587.746 23.9961 588.553 24.0807 589.191 24.25C589.829 24.4193 590.37 24.6146 590.812 24.8359V23.8008C590.812 23.0195 590.552 22.3815 590.031 21.8867C589.51 21.3789 588.768 21.125 587.805 21.125C586.581 21.125 585.585 21.2161 584.816 21.3984C584.048 21.5677 583.13 21.9388 582.062 22.5117L579.934 18.6836C581.262 17.9023 582.518 17.3555 583.703 17.043C584.901 16.7174 586.268 16.5547 587.805 16.5547C589.081 16.5547 590.24 16.7174 591.281 17.043C592.336 17.3685 593.234 17.8438 593.977 18.4688C594.732 19.0938 595.311 19.862 595.715 20.7734C596.132 21.6849 596.34 22.7331 596.34 23.918V38H590.812ZM590.812 29.1914C590.578 29.0482 590.337 28.9245 590.09 28.8203C589.842 28.7031 589.569 28.612 589.27 28.5469C588.97 28.4688 588.632 28.4102 588.254 28.3711C587.889 28.332 587.46 28.3125 586.965 28.3125C585.923 28.3125 585.129 28.5469 584.582 29.0156C584.048 29.4714 583.781 30.1224 583.781 30.9688C583.781 31.3333 583.833 31.6849 583.938 32.0234C584.055 32.362 584.237 32.6615 584.484 32.9219C584.745 33.1693 585.077 33.3711 585.48 33.5273C585.884 33.6836 586.379 33.7617 586.965 33.7617C587.421 33.7617 587.844 33.7096 588.234 33.6055C588.638 33.5013 589.003 33.3646 589.328 33.1953C589.667 33.013 589.96 32.8047 590.207 32.5703C590.454 32.3359 590.656 32.0951 590.812 31.8477V29.1914ZM617.473 18.6055L615.715 22.9609C614.673 22.401 613.612 21.9844 612.531 21.7109C611.464 21.4245 610.487 21.2812 609.602 21.2812C608.625 21.2812 607.909 21.3789 607.453 21.5742C606.997 21.7565 606.77 22.1146 606.77 22.6484C606.77 22.8698 606.822 23.0651 606.926 23.2344C607.03 23.4036 607.238 23.5729 607.551 23.7422C607.863 23.9115 608.299 24.1003 608.859 24.3086C609.432 24.5169 610.188 24.7708 611.125 25.0703C612.062 25.3828 612.954 25.7214 613.801 26.0859C614.647 26.4375 615.389 26.8672 616.027 27.375C616.665 27.8828 617.173 28.5013 617.551 29.2305C617.928 29.9466 618.117 30.832 618.117 31.8867C618.117 33.0977 617.889 34.1198 617.434 34.9531C616.991 35.7865 616.379 36.4635 615.598 36.9844C614.829 37.4922 613.924 37.8633 612.883 38.0977C611.854 38.332 610.747 38.4492 609.562 38.4492C607.961 38.4492 606.385 38.2344 604.836 37.8047C603.286 37.362 601.926 36.763 600.754 36.0078L602.609 31.8086C603.729 32.4336 604.882 32.9089 606.066 33.2344C607.264 33.5599 608.534 33.7227 609.875 33.7227C610.917 33.7227 611.646 33.599 612.062 33.3516C612.479 33.0911 612.688 32.681 612.688 32.1211C612.688 31.8867 612.635 31.6784 612.531 31.4961C612.427 31.3008 612.251 31.125 612.004 30.9688C611.77 30.7995 611.457 30.6367 611.066 30.4805C610.676 30.3242 610.188 30.1615 609.602 29.9922C608.339 29.6146 607.199 29.237 606.184 28.8594C605.168 28.4818 604.296 28.0326 603.566 27.5117C602.85 26.9779 602.297 26.3398 601.906 25.5977C601.516 24.8424 601.32 23.9115 601.32 22.8047C601.32 21.7109 601.522 20.7734 601.926 19.9922C602.342 19.1979 602.922 18.5469 603.664 18.0391C604.406 17.5312 605.292 17.1602 606.32 16.9258C607.349 16.6784 608.482 16.5547 609.719 16.5547C611.047 16.5547 612.388 16.7435 613.742 17.1211C615.109 17.4857 616.353 17.9805 617.473 18.6055ZM639.738 27.5117C639.738 27.9154 639.732 28.2604 639.719 28.5469C639.706 28.8333 639.686 29.0807 639.66 29.2891H627.102C627.154 30.0052 627.31 30.6172 627.57 31.125C627.844 31.6198 628.176 32.0234 628.566 32.3359C628.97 32.6484 629.419 32.8763 629.914 33.0195C630.409 33.1628 630.91 33.2344 631.418 33.2344C631.796 33.2344 632.147 33.2083 632.473 33.1562C632.798 33.0911 633.124 32.9935 633.449 32.8633C633.788 32.7201 634.081 32.5573 634.328 32.375C634.589 32.1927 634.816 31.9909 635.012 31.7695L638.938 35.0312C638.521 35.5781 638.026 36.0664 637.453 36.4961C636.88 36.9128 636.262 37.2708 635.598 37.5703C634.934 37.8568 634.243 38.0716 633.527 38.2148C632.824 38.3711 632.121 38.4492 631.418 38.4492C630.259 38.4492 629.217 38.306 628.293 38.0195C627.382 37.7461 626.581 37.375 625.891 36.9062C625.201 36.4375 624.589 35.8971 624.055 35.2852C623.521 34.6602 623.072 33.9701 622.707 33.2148C622.342 32.4466 622.056 31.5938 621.848 30.6562C621.639 29.7057 621.535 28.6576 621.535 27.5117C621.535 25.9102 621.77 24.4388 622.238 23.0977C622.72 21.7435 623.378 20.5846 624.211 19.6211C625.057 18.6576 626.047 17.9089 627.18 17.375C628.326 16.8281 629.562 16.5547 630.891 16.5547C632.297 16.5547 633.547 16.8477 634.641 17.4336C635.734 18.0065 636.659 18.7943 637.414 19.7969C638.169 20.7865 638.742 21.9453 639.133 23.2734C639.536 24.6016 639.738 26.0143 639.738 27.5117ZM634.367 25.1289C634.328 24.6602 634.224 24.1979 634.055 23.7422C633.898 23.2865 633.664 22.8828 633.352 22.5312C633.052 22.1797 632.674 21.8997 632.219 21.6914C631.776 21.4701 631.242 21.3594 630.617 21.3594C630.109 21.3594 629.654 21.457 629.25 21.6523C628.859 21.8477 628.514 22.1146 628.215 22.4531C627.928 22.7917 627.694 23.1888 627.512 23.6445C627.342 24.1003 627.232 24.5951 627.18 25.1289H634.367ZM659.699 18.6055L657.941 22.9609C656.9 22.401 655.839 21.9844 654.758 21.7109C653.69 21.4245 652.714 21.2812 651.828 21.2812C650.852 21.2812 650.135 21.3789 649.68 21.5742C649.224 21.7565 648.996 22.1146 648.996 22.6484C648.996 22.8698 649.048 23.0651 649.152 23.2344C649.257 23.4036 649.465 23.5729 649.777 23.7422C650.09 23.9115 650.526 24.1003 651.086 24.3086C651.659 24.5169 652.414 24.7708 653.352 25.0703C654.289 25.3828 655.181 25.7214 656.027 26.0859C656.874 26.4375 657.616 26.8672 658.254 27.375C658.892 27.8828 659.4 28.5013 659.777 29.2305C660.155 29.9466 660.344 30.832 660.344 31.8867C660.344 33.0977 660.116 34.1198 659.66 34.9531C659.217 35.7865 658.605 36.4635 657.824 36.9844C657.056 37.4922 656.151 37.8633 655.109 38.0977C654.081 38.332 652.974 38.4492 651.789 38.4492C650.188 38.4492 648.612 38.2344 647.062 37.8047C645.513 37.362 644.152 36.763 642.98 36.0078L644.836 31.8086C645.956 32.4336 647.108 32.9089 648.293 33.2344C649.491 33.5599 650.76 33.7227 652.102 33.7227C653.143 33.7227 653.872 33.599 654.289 33.3516C654.706 33.0911 654.914 32.681 654.914 32.1211C654.914 31.8867 654.862 31.6784 654.758 31.4961C654.654 31.3008 654.478 31.125 654.23 30.9688C653.996 30.7995 653.684 30.6367 653.293 30.4805C652.902 30.3242 652.414 30.1615 651.828 29.9922C650.565 29.6146 649.426 29.237 648.41 28.8594C647.395 28.4818 646.522 28.0326 645.793 27.5117C645.077 26.9779 644.523 26.3398 644.133 25.5977C643.742 24.8424 643.547 23.9115 643.547 22.8047C643.547 21.7109 643.749 20.7734 644.152 19.9922C644.569 19.1979 645.148 18.5469 645.891 18.0391C646.633 17.5312 647.518 17.1602 648.547 16.9258C649.576 16.6784 650.708 16.5547 651.945 16.5547C653.273 16.5547 654.615 16.7435 655.969 17.1211C657.336 17.4857 658.579 17.9805 659.699 18.6055Z" fill="#262626"/>
</svg>
