<svg width="144" height="31" viewBox="0 0 144 31" fill="none" xmlns="http://www.w3.org/2000/svg">
<g clip-path="url(#clip0_1089_995)">
<path d="M50.899 17.7946L50.0435 20.2132H49.9722C49.8296 19.6678 49.5682 18.8379 49.1405 17.842L44.5542 6.34175H40.063V24.671H43.0334V13.3604C43.0334 12.6491 43.0334 11.8429 43.0096 10.847C42.9859 10.349 42.9383 9.96965 42.9146 9.68511H42.9859C43.1284 10.3965 43.2948 10.9181 43.4136 11.2501L48.9266 24.6236H51.0178L56.4833 11.1315C56.6021 10.8233 56.721 10.2068 56.8398 9.68511H56.9111C56.8398 11.0367 56.7922 12.246 56.7685 12.9811V24.5998H59.929V6.29432H55.6041L50.899 17.7946ZM62.9231 11.4635H66.0123V24.5998H62.9231V11.4635ZM64.4915 5.91493C63.9687 5.91493 63.541 6.10463 63.1845 6.43659C62.8281 6.76856 62.638 7.19537 62.638 7.71703C62.638 8.21498 62.8281 8.64179 63.1845 8.97376C63.541 9.30572 63.9687 9.4717 64.4915 9.4717C65.0143 9.4717 65.4658 9.28201 65.7985 8.97376C66.1549 8.64179 66.345 8.21498 66.345 7.71703C66.345 7.21908 66.1549 6.79227 65.7985 6.43659C65.4896 6.10463 65.0381 5.91493 64.4915 5.91493ZM76.9672 11.3449C76.3968 11.2264 75.8028 11.1552 75.2324 11.1552C73.8304 11.1552 72.5472 11.4635 71.4779 12.08C70.4085 12.6965 69.5531 13.5501 69.0065 14.6172C68.4362 15.7079 68.151 16.9646 68.151 18.4111C68.151 19.6678 68.4362 20.7822 68.9827 21.8018C69.5293 22.7977 70.2897 23.6039 71.3115 24.1493C72.2858 24.6947 73.4264 24.9792 74.7097 24.9792C76.183 24.9792 77.4424 24.671 78.4405 24.1019L78.4642 24.0782V21.2328L78.3454 21.3276C77.8939 21.6596 77.3711 21.9441 76.8483 22.1101C76.3018 22.2998 75.8028 22.3946 75.375 22.3946C74.1393 22.3946 73.1651 22.039 72.4759 21.2565C71.763 20.4977 71.4066 19.4544 71.4066 18.1502C71.4066 16.7987 71.763 15.7316 72.4997 14.9491C73.2363 14.1666 74.2106 13.7635 75.3988 13.7635C76.3968 13.7635 77.4187 14.0955 78.3454 14.7594L78.4642 14.8543V11.8429L78.4405 11.8192C78.0365 11.6532 77.585 11.4635 76.9672 11.3449ZM87.1615 11.2501C86.4011 11.2501 85.6882 11.4872 85.0704 11.9852C84.5476 12.412 84.1912 13.0285 83.8822 13.7635H83.8585V11.4635H80.7693V24.5998H83.8585V17.8894C83.8585 16.7512 84.0961 15.8028 84.6189 15.1151C85.1417 14.4038 85.807 14.0481 86.615 14.0481C86.9002 14.0481 87.1853 14.1192 87.5418 14.1666C87.8744 14.2615 88.1121 14.3563 88.2784 14.4749L88.3972 14.5697V11.4872L88.3259 11.4635C88.1121 11.3212 87.6843 11.2501 87.1615 11.2501ZM95.5737 11.179C93.4113 11.179 91.6765 11.8192 90.4646 13.0759C89.2289 14.3326 88.6349 16.0636 88.6349 18.2451C88.6349 20.2843 89.2527 21.9441 90.4409 23.1534C91.629 24.339 93.2449 24.9555 95.2648 24.9555C97.3797 24.9555 99.0669 24.3153 100.279 23.0349C101.514 21.7544 102.109 20.0472 102.109 17.9368C102.109 15.8502 101.538 14.1904 100.374 12.9811C99.257 11.7718 97.6173 11.179 95.5737 11.179ZM98.0451 21.2802C97.4748 22.0153 96.5718 22.3709 95.4549 22.3709C94.338 22.3709 93.435 22.0153 92.7934 21.2328C92.1518 20.4977 91.8429 19.4307 91.8429 18.0791C91.8429 16.6801 92.1756 15.6131 92.7934 14.8543C93.435 14.0955 94.3143 13.7161 95.4311 13.7161C96.5242 13.7161 97.3797 14.0718 97.9975 14.8069C98.6154 15.5419 98.9481 16.609 98.9481 18.008C98.9005 19.4307 98.6391 20.5451 98.0451 21.2802ZM109 16.9172C108.026 16.5141 107.408 16.2059 107.123 15.945C106.885 15.7079 106.766 15.3759 106.766 14.9491C106.766 14.5935 106.909 14.2378 107.265 14.0007C107.622 13.7635 108.026 13.645 108.62 13.645C109.142 13.645 109.689 13.7398 110.212 13.8821C110.735 14.0244 111.21 14.2378 111.59 14.5223L111.709 14.6172V11.7243L111.638 11.7006C111.281 11.5583 110.806 11.4161 110.236 11.2975C109.665 11.2027 109.142 11.1552 108.715 11.1552C107.241 11.1552 106.029 11.5109 105.079 12.2934C104.128 13.0285 103.677 14.0244 103.677 15.1863C103.677 15.8028 103.772 16.3481 103.986 16.7987C104.2 17.2492 104.509 17.676 104.936 18.0317C105.364 18.3636 105.982 18.743 106.837 19.0987C107.55 19.407 108.097 19.6441 108.43 19.8338C108.762 20.0235 108.976 20.2369 109.142 20.4029C109.261 20.5925 109.333 20.8297 109.333 21.1379C109.333 22.0153 108.667 22.4421 107.313 22.4421C106.79 22.4421 106.243 22.3472 105.602 22.1338C104.96 21.9204 104.366 21.6122 103.867 21.2565L103.748 21.1616V24.173L103.82 24.1967C104.271 24.4101 104.818 24.5524 105.483 24.7184C106.148 24.837 106.742 24.9318 107.265 24.9318C108.857 24.9318 110.164 24.5761 111.091 23.7936C112.042 23.0349 112.541 22.0627 112.541 20.806C112.541 19.9286 112.303 19.1461 111.78 18.5533C111.091 17.9842 110.236 17.3914 109 16.9172ZM120.691 11.179C118.529 11.179 116.794 11.8192 115.582 13.0759C114.37 14.3326 113.753 16.0636 113.753 18.2451C113.753 20.2843 114.37 21.9441 115.559 23.1534C116.747 24.339 118.363 24.9555 120.382 24.9555C122.497 24.9555 124.185 24.3153 125.396 23.0349C126.632 21.7544 127.226 20.0472 127.226 17.9368C127.226 15.8502 126.656 14.1904 125.491 12.9811C124.375 11.7718 122.735 11.179 120.691 11.179ZM123.139 21.2802C122.569 22.0153 121.666 22.3709 120.549 22.3709C119.408 22.3709 118.529 22.0153 117.887 21.2328C117.246 20.4977 116.937 19.4307 116.937 18.0791C116.937 16.6801 117.269 15.6131 117.887 14.8543C118.529 14.0955 119.408 13.7161 120.525 13.7161C121.594 13.7161 122.474 14.0718 123.091 14.8069C123.709 15.5419 124.042 16.609 124.042 18.008C124.042 19.4307 123.733 20.5451 123.139 21.2802ZM143.742 14.0007V11.4635H140.629V7.57476L140.534 7.59847L137.587 8.47581L137.516 8.49952V11.4635H132.858V9.80367C132.858 9.04489 133.048 8.4521 133.381 8.07271C133.714 7.69332 134.213 7.50362 134.83 7.50362C135.258 7.50362 135.71 7.59847 136.209 7.81188L136.327 7.88301V5.20358L136.256 5.17987C135.828 5.0376 135.258 4.94275 134.521 4.94275C133.595 4.94275 132.787 5.15616 132.05 5.51183C131.313 5.91493 130.767 6.4603 130.363 7.19537C129.959 7.90673 129.745 8.71293 129.745 9.63769V11.4635H127.583V13.9769H129.745V24.5998H132.858V14.0007H137.516V20.7585C137.516 23.5328 138.823 24.9318 141.437 24.9318C141.864 24.9318 142.316 24.8607 142.744 24.7895C143.195 24.6947 143.528 24.5761 143.718 24.4813L143.742 24.4576V21.9204L143.623 22.0153C143.433 22.1338 143.266 22.2287 142.981 22.2998C142.744 22.3709 142.53 22.3946 142.363 22.3946C141.745 22.3946 141.318 22.2524 141.009 21.8967C140.724 21.5647 140.581 21.0194 140.581 20.2132V14.0007H143.742Z" fill="#737373"/>
<path d="M0.235352 0.176514H14.8022V14.7119H0.235352V0.176514Z" fill="#F25022"/>
<path d="M16.3223 0.176514H30.8891V14.7119H16.3223V0.176514Z" fill="#7FBA00"/>
<path d="M0.235352 16.2294H14.8022V30.7647H0.235352V16.2294Z" fill="#00A4EF"/>
<path d="M16.3223 16.2295H30.8891V30.7648H16.3223V16.2295Z" fill="#FFB900"/>
</g>
<defs>
<clipPath id="clip0_1089_995">
<rect width="143.529" height="30.5882" fill="white" transform="translate(0.235352 0.176514)"/>
</clipPath>
</defs>
</svg>
