<svg width="142" height="33" viewBox="0 0 142 33" fill="none" xmlns="http://www.w3.org/2000/svg">
<g clip-path="url(#clip0_1089_1035)">
<rect width="141.176" height="32.9412" transform="translate(0.411743)" fill="white"/>
<path d="M50.6526 11.7167V13.5836H50.7099C51.3843 12.5841 52.5038 11.407 54.9852 11.407C56.9157 11.407 58.3966 12.3858 59.0313 13.8644H59.0886C59.6307 13.1169 60.2521 12.551 60.9485 12.1504C61.7727 11.6754 62.6895 11.4028 63.8442 11.4028C66.4579 11.4028 68.7718 13.0962 68.7718 17.3668V25.4662H64.7874V17.9327C64.7874 15.7685 64.0029 14.517 62.3721 14.517C61.1777 14.517 60.3094 15.2687 59.9789 16.1939C59.8643 16.5119 59.8114 16.9456 59.8114 17.309V25.4703H55.827V17.6271C55.827 15.7891 55.0734 14.5129 53.4646 14.5129C52.1776 14.5129 51.3711 15.4628 51.0405 16.2765C50.8995 16.6234 50.8554 17.024 50.8554 17.3999V25.4662H46.8666V11.7167H50.6526ZM89.3371 11.7167V14.3105H89.4473C90.179 12.328 91.9155 11.407 93.4405 11.407C93.8239 11.407 94.0355 11.4359 94.344 11.4937V15.0952C93.9782 15.0457 93.6388 14.9961 93.1628 14.9961C91.4351 14.9961 90.2318 15.9378 89.9277 17.4123C89.8616 17.7179 89.8396 18.0483 89.8396 18.4283V25.4703H85.7494V11.7167H89.3371ZM99.8975 7.16113V11.4896H103.353V14.992H99.8975V20.1589C99.8975 21.8316 100.351 22.6411 101.7 22.6411C102.335 22.6411 102.802 22.5668 103.207 22.4718L103.26 25.3753C102.718 25.5653 101.563 25.7718 100.391 25.7718C99.0116 25.7718 97.8612 25.3216 97.1604 24.6236C96.3583 23.8265 95.988 22.5213 95.988 20.6627V7.16113H99.8975ZM44.0899 25.4662H40.1232V7.16113H44.0899V25.4662ZM33.5119 20.5554C33.5119 20.8073 33.4899 21.0716 33.415 21.2988C33.1065 22.2529 32.0531 23.0583 30.7396 23.0583C29.6422 23.0583 28.7695 22.4759 28.7695 21.241C28.7695 19.3535 30.9909 18.8289 33.5163 18.8413V20.5554H33.5119ZM37.4743 17.2636C37.4743 14.1453 36.0551 11.407 31.2553 11.407C28.7915 11.407 26.8346 12.0554 25.768 12.6336L26.5481 15.1365C27.5222 14.5583 29.078 14.0833 30.5501 14.0833C32.9875 14.0792 33.3841 15.3761 33.3841 16.2063V16.4045C28.0731 16.3963 24.719 18.1185 24.719 21.6292C24.719 23.7728 26.4247 25.7801 29.3954 25.7801C31.2245 25.7801 32.7495 25.0986 33.6662 24.0041H33.7544C33.7544 24.0041 34.3626 26.3789 37.7035 25.4703C37.5272 24.479 37.4699 23.4258 37.4699 22.1579V17.2636H37.4743ZM4.79278 7.16113C5.20268 9.0982 6.36625 14.7235 6.36625 14.7235C6.85548 17.0364 7.30505 19.4609 7.64442 21.3773H7.70613C8.03669 19.3411 8.55677 17.4123 9.11211 15.025L11.0734 7.16113H15.4148L17.2483 15.2274C17.7287 17.4701 18.1122 19.2007 18.4163 21.2864H18.4736C18.8042 19.18 19.2361 17.3792 19.7077 15.0746L21.4707 7.16113H25.6358L20.4746 25.4662C17.1866 26.1394 15.9261 24.9003 15.4765 22.9344C15.027 20.9643 14.1455 17.2182 14.1455 17.2182C13.6915 15.1655 13.3389 13.7199 13.0921 11.6135H13.0304C12.6778 13.6992 12.3075 15.1613 11.761 17.214L9.59694 25.4703C6.23844 26.0981 5.07486 25.1688 4.43137 22.6452C3.87603 20.4851 0.411743 7.16526 0.411743 7.16526H4.79278V7.16113ZM79.1382 20.5554C79.1382 20.8073 79.1162 21.0716 79.0412 21.2988C78.7327 22.2529 77.6793 23.0583 76.3659 23.0583C75.2684 23.0583 74.3958 22.4759 74.3958 21.241C74.3958 19.3535 76.6171 18.8289 79.1426 18.8413V20.5554H79.1382ZM83.1005 17.2636C83.1005 14.1453 81.6813 11.407 76.8816 11.407C74.4178 11.407 72.4609 12.0554 71.3943 12.6336L72.1744 15.1365C73.1484 14.5583 74.7043 14.0833 76.1764 14.0833C78.6093 14.0792 79.0104 15.3761 79.0104 16.2063V16.4045C73.7038 16.3963 70.3497 18.1185 70.3497 21.6292C70.3497 23.7728 72.0598 25.7801 75.026 25.7801C76.8507 25.7801 78.3801 25.0986 79.2925 24.0041H79.385C79.385 24.0041 79.9933 26.3789 83.3341 25.4703C83.1578 24.479 83.1005 23.4258 83.1005 22.1579V17.2636Z" fill="#041E42"/>
<path d="M119.433 19.1618C119.824 19.8303 119.797 20.5764 119.38 20.9171L112.166 25.8811C111.415 26.3081 110.29 25.7906 109.653 24.708C109.012 23.6212 109.126 22.4093 109.877 21.9823L117.864 18.3337C118.365 18.144 119.042 18.4933 119.433 19.1618ZM128.927 19.1618C129.322 18.4933 129.994 18.1483 130.495 18.3294L138.487 21.978C139.238 22.405 139.348 23.6169 138.711 24.7037C138.069 25.7862 136.94 26.2995 136.193 25.8768L128.979 20.9128C128.566 20.5764 128.536 19.8259 128.927 19.1618ZM124.178 21.853C124.964 21.853 125.61 22.2497 125.698 22.7716L126.475 31.3886C126.475 32.2425 125.46 32.9412 124.182 32.9412C122.908 32.9412 121.889 32.2425 121.889 31.3886L122.662 22.7716C122.75 22.2497 123.396 21.853 124.178 21.853ZM128.979 12.0284L136.193 7.06006C136.94 6.63309 138.069 7.14631 138.711 8.23314C139.348 9.31996 139.238 10.5319 138.487 10.9588L130.495 14.6118C129.994 14.7929 129.318 14.4479 128.927 13.7794C128.536 13.1109 128.566 12.3648 128.979 12.0284ZM117.864 14.6118L109.877 10.9588C109.13 10.5319 109.016 9.31996 109.653 8.23314C110.29 7.14631 111.419 6.63309 112.166 7.06006L119.38 12.0284C119.797 12.3605 119.824 13.1109 119.433 13.7794C119.042 14.4479 118.365 14.7929 117.864 14.6118ZM122.662 10.1696L121.889 1.55261C121.889 0.698674 122.903 0 124.182 0C125.46 0 126.475 0.698674 126.475 1.55261L125.698 10.1696C125.61 10.6871 124.964 11.0882 124.178 11.0882C123.396 11.0882 122.75 10.6871 122.662 10.1696ZM140.661 25.8466V25.631H140.859C140.925 25.631 140.969 25.6741 140.969 25.7388C140.969 25.7992 140.925 25.8466 140.859 25.8466H140.661ZM140.499 26.2391C140.499 26.2606 140.516 26.2822 140.543 26.2822H140.626C140.648 26.2822 140.67 26.2606 140.67 26.2391V25.9933H140.806L140.916 26.252C140.925 26.2693 140.938 26.2822 140.956 26.2822H141.057C141.087 26.2822 141.109 26.252 141.096 26.2218C141.057 26.1442 141.017 26.0623 140.978 25.9803C141.043 25.9588 141.145 25.8941 141.145 25.7388C141.145 25.5749 141.008 25.48 140.872 25.48H140.543C140.521 25.48 140.499 25.5016 140.499 25.5232V26.2391ZM140.143 25.8811C140.143 25.5318 140.433 25.2471 140.789 25.2471C141.145 25.2471 141.434 25.5275 141.434 25.8811C141.434 26.2305 141.149 26.5151 140.789 26.5151C140.428 26.5151 140.143 26.2305 140.143 25.8811ZM139.989 25.8811C139.989 26.3124 140.345 26.6661 140.789 26.6661C141.228 26.6661 141.588 26.3124 141.588 25.8811C141.588 25.4498 141.228 25.0962 140.789 25.0962C140.345 25.0962 139.989 25.4498 139.989 25.8811Z" fill="#FFC124"/>
</g>
<defs>
<clipPath id="clip0_1089_1035">
<rect width="141.176" height="32.9412" fill="white" transform="translate(0.411743)"/>
</clipPath>
</defs>
</svg>
